<svg xmlns="http://www.w3.org/2000/svg" xmlns:xlink="http://www.w3.org/1999/xlink" width="1080" zoomAndPan="magnify" viewBox="0 0 810 1199.999942" height="1600" preserveAspectRatio="xMidYMid meet" version="1.2"><defs/><g id="9ec1145c61"><rect x="0" width="810" y="0" height="1199.999942" style="fill:#ffffff;fill-opacity:1;stroke:none;"/><rect x="0" width="810" y="0" height="1199.999942" style="fill:#f8f4ef;fill-opacity:1;stroke:none;"/><g style="fill:#3d3b3a;fill-opacity:1;"><g transform="translate(193.174794, 616.540372)"><path style="stroke:none" d="M 70.96875 -192 C 71.820312 -194.03125 73.082031 -194.835938 74.75 -194.421875 C 76.414062 -194.015625 76.820312 -192.800781 75.96875 -190.78125 C 70.8125 -178.851562 64.921875 -166.367188 58.296875 -153.328125 C 51.679688 -140.285156 44.5 -128.289062 36.75 -117.34375 C 28.164062 -105.425781 19.066406 -96.671875 9.453125 -91.078125 C -0.160156 -85.484375 -9.003906 -84.003906 -17.078125 -86.640625 C -25.160156 -89.273438 -31.53125 -96.816406 -36.1875 -109.265625 C -40.851562 -121.710938 -42.613281 -139.875 -41.46875 -163.75 C -40.832031 -175.957031 -39.441406 -188.335938 -37.296875 -200.890625 C -35.148438 -213.441406 -32.488281 -225.984375 -29.3125 -238.515625 C -21.476562 -267.578125 -12.828125 -290.460938 -3.359375 -307.171875 C 6.097656 -323.878906 14.835938 -334.78125 22.859375 -339.875 C 30.890625 -344.976562 36.816406 -344.289062 40.640625 -337.8125 C 44.472656 -331.34375 44.609375 -319.175781 41.046875 -301.3125 C 37.492188 -283.457031 28.757812 -260.097656 14.84375 -231.234375 C 8.9375 -219.140625 2.71875 -207.820312 -3.8125 -197.28125 C -10.351562 -186.75 -16.054688 -178.039062 -20.921875 -171.15625 C -25.785156 -164.28125 -28.976562 -160.148438 -30.5 -158.765625 C -30.957031 -135.304688 -28.140625 -118.820312 -22.046875 -109.3125 C -15.953125 -99.800781 -8.160156 -96.382812 1.328125 -99.0625 C 10.828125 -101.75 20.585938 -109.34375 30.609375 -121.84375 C 38.335938 -131.738281 45.707031 -143.1875 52.71875 -156.1875 C 59.738281 -169.1875 65.820312 -181.125 70.96875 -192 Z M -18.484375 -239.390625 C -23.753906 -217.472656 -27.421875 -196.050781 -29.484375 -175.125 C -15.242188 -193.3125 -2.992188 -212.75 7.265625 -233.4375 C 19.785156 -258.050781 27.984375 -278.273438 31.859375 -294.109375 C 35.742188 -309.953125 36.664062 -320.921875 34.625 -327.015625 C 32.59375 -333.109375 28.613281 -334.171875 22.6875 -330.203125 C 16.769531 -326.234375 10.0625 -316.773438 2.5625 -301.828125 C -4.9375 -286.878906 -11.953125 -266.066406 -18.484375 -239.390625 Z M -18.484375 -239.390625 "/></g></g><g style="fill:#3d3b3a;fill-opacity:1;"><g transform="translate(299.845262, 592.344544)"><path style="stroke:none" d="M 95.84375 -196.859375 C 97.300781 -198.503906 98.640625 -198.941406 99.859375 -198.171875 C 101.085938 -197.398438 101.125 -196.097656 99.96875 -194.265625 C 86.6875 -174.191406 73.175781 -158.003906 59.4375 -145.703125 C 45.695312 -133.410156 29.046875 -124.125 9.484375 -117.84375 C 5.390625 -106.945312 0.0976562 -98.460938 -6.390625 -92.390625 C -12.890625 -86.328125 -19.363281 -82.765625 -25.8125 -81.703125 C -32.257812 -80.640625 -37.921875 -82.175781 -42.796875 -86.3125 C -47.679688 -90.457031 -50.570312 -97.410156 -51.46875 -107.171875 C -51.914062 -114.941406 -51.144531 -123.117188 -49.15625 -131.703125 C -50.601562 -139.242188 -50.085938 -146.507812 -47.609375 -153.5 C -45.140625 -160.5 -41.445312 -166.78125 -36.53125 -172.34375 C -31.625 -177.914062 -26.222656 -182.160156 -20.328125 -185.078125 C -14.441406 -187.992188 -8.773438 -189.019531 -3.328125 -188.15625 C 2.117188 -187.289062 6.660156 -184.054688 10.296875 -178.453125 C 13.929688 -172.847656 15.769531 -164.144531 15.8125 -152.34375 C 15.5625 -148.875 15.253906 -145.328125 14.890625 -141.703125 C 14.535156 -138.078125 13.878906 -134.320312 12.921875 -130.4375 C 31.085938 -135.875 46.207031 -144.09375 58.28125 -155.09375 C 70.351562 -166.09375 82.875 -180.015625 95.84375 -196.859375 Z M 7.09375 -149.1875 C 6.757812 -162.21875 3.320312 -170.421875 -3.21875 -173.796875 C -9.757812 -177.171875 -16.28125 -176.421875 -22.78125 -171.546875 C -20.550781 -170.984375 -19.554688 -169.492188 -19.796875 -167.078125 C -20.035156 -164.671875 -21.257812 -162.554688 -23.46875 -160.734375 C -26.820312 -158.140625 -29.617188 -154.554688 -31.859375 -149.984375 C -34.097656 -145.410156 -35.816406 -141.15625 -37.015625 -137.21875 C -35.390625 -132.332031 -32.347656 -129.019531 -27.890625 -127.28125 C -23.429688 -125.539062 -18.304688 -124.929688 -12.515625 -125.453125 C -6.734375 -125.972656 -1.097656 -126.859375 4.390625 -128.109375 C 5.398438 -131.742188 6.097656 -135.3125 6.484375 -138.8125 C 6.878906 -142.320312 7.082031 -145.78125 7.09375 -149.1875 Z M -40.0625 -117.625 C -40.15625 -107.632812 -37.851562 -100.675781 -33.15625 -96.75 C -28.46875 -92.832031 -22.988281 -92.375 -16.71875 -95.375 C -10.445312 -98.375 -4.929688 -105.007812 -0.171875 -115.28125 C -7.347656 -113.375 -14.535156 -112.390625 -21.734375 -112.328125 C -28.941406 -112.273438 -35.050781 -114.039062 -40.0625 -117.625 Z M -40.0625 -117.625 "/></g></g><g style="fill:#3d3b3a;fill-opacity:1;"><g transform="translate(428.972666, 563.054858)"><path style="stroke:none" d="M 114.265625 -200.65625 C 115.804688 -203.09375 117.226562 -203.738281 118.53125 -202.59375 C 119.84375 -201.457031 119.894531 -200.09375 118.6875 -198.5 C 108.425781 -183.582031 98.0625 -171.722656 87.59375 -162.921875 C 77.125 -154.128906 67.238281 -147.691406 57.9375 -143.609375 C 48.632812 -139.523438 40.488281 -137.273438 33.5 -136.859375 C 26.507812 -136.453125 21.328125 -137.320312 17.953125 -139.46875 C 15.953125 -133.226562 13.203125 -125.972656 9.703125 -117.703125 C 6.203125 -109.429688 2.101562 -102.070312 -2.59375 -95.625 C -7.300781 -89.1875 -12.523438 -85.316406 -18.265625 -84.015625 C -25.003906 -82.484375 -30.203125 -84.578125 -33.859375 -90.296875 C -37.523438 -96.023438 -39.976562 -103.929688 -41.21875 -114.015625 C -42.457031 -124.109375 -42.71875 -134.804688 -42 -146.109375 C -41.289062 -157.421875 -39.742188 -167.675781 -37.359375 -176.875 C -36.222656 -181.0625 -33.910156 -183.289062 -30.421875 -183.5625 C -26.941406 -183.832031 -25.554688 -182.050781 -26.265625 -178.21875 C -27.054688 -173.570312 -27.804688 -167.625 -28.515625 -160.375 C -29.234375 -153.132812 -29.738281 -145.546875 -30.03125 -137.609375 C -30.332031 -129.679688 -30.101562 -122.320312 -29.34375 -115.53125 C -28.59375 -108.75 -27.175781 -103.363281 -25.09375 -99.375 C -23.007812 -95.394531 -19.945312 -93.726562 -15.90625 -94.375 C -13.15625 -95 -10.234375 -97.171875 -7.140625 -100.890625 C -4.046875 -104.609375 -1.125 -109.078125 1.625 -114.296875 C 4.375 -119.515625 6.84375 -124.800781 9.03125 -130.15625 C 11.226562 -135.507812 12.863281 -139.875 13.9375 -143.25 C 10.425781 -147.175781 8.59375 -152.664062 8.4375 -159.71875 C 8.28125 -166.769531 9.390625 -173.710938 11.765625 -180.546875 C 14.546875 -187.992188 17.847656 -192.539062 21.671875 -194.1875 C 25.492188 -195.84375 27.5 -193.941406 27.6875 -188.484375 C 27.925781 -182.773438 27.414062 -176.628906 26.15625 -170.046875 C 24.90625 -163.460938 23.4375 -156.960938 21.75 -150.546875 C 24.644531 -147.003906 30.820312 -145.78125 40.28125 -146.875 C 49.738281 -147.96875 61.0625 -152.695312 74.25 -161.0625 C 87.4375 -169.4375 100.773438 -182.632812 114.265625 -200.65625 Z M 18.375 -175.75 C 17.9375 -173.03125 17.628906 -170.335938 17.453125 -167.671875 C 17.273438 -165.003906 17.375 -162.269531 17.75 -159.46875 C 18.320312 -162.75 18.617188 -165.769531 18.640625 -168.53125 C 18.671875 -171.289062 18.582031 -173.695312 18.375 -175.75 Z M 18.375 -175.75 "/></g><g transform="translate(577.562772, 529.35049)"><path style="stroke:none" d="M 81.328125 -193.1875 C 82.484375 -195.007812 83.785156 -195.625 85.234375 -195.03125 C 86.679688 -194.445312 86.828125 -193.238281 85.671875 -191.40625 C 77.460938 -176.6875 68.347656 -161.628906 58.328125 -146.234375 C 48.304688 -130.847656 36.960938 -117.519531 24.296875 -106.25 C 13.847656 -96.800781 3.804688 -90.195312 -5.828125 -86.4375 C -15.472656 -82.675781 -24.015625 -81.851562 -31.453125 -83.96875 C -38.890625 -86.082031 -44.347656 -91.070312 -47.828125 -98.9375 C -51.316406 -106.8125 -52.007812 -117.675781 -49.90625 -131.53125 C -47.507812 -147.550781 -42.171875 -161.613281 -33.890625 -173.71875 C -25.617188 -185.832031 -17.023438 -194.21875 -8.109375 -198.875 C -0.890625 -202.863281 4.765625 -203.351562 8.859375 -200.34375 C 12.953125 -197.332031 14.769531 -192.5 14.3125 -185.84375 C 13.863281 -179.1875 10.328125 -171.953125 3.703125 -164.140625 C -2.097656 -157.328125 -8.828125 -152.003906 -16.484375 -148.171875 C -24.148438 -144.335938 -31.691406 -141.445312 -39.109375 -139.5 C -42.691406 -122.9375 -41.832031 -111.054688 -36.53125 -103.859375 C -31.238281 -96.671875 -23.484375 -93.972656 -13.265625 -95.765625 C -3.046875 -97.554688 7.976562 -103.597656 19.8125 -113.890625 C 31.394531 -124.128906 42.40625 -136.597656 52.84375 -151.296875 C 63.28125 -166.003906 72.773438 -179.96875 81.328125 -193.1875 Z M -6.734375 -189.34375 C -11.191406 -187.019531 -16.160156 -182.613281 -21.640625 -176.125 C -27.128906 -169.632812 -31.679688 -161.644531 -35.296875 -152.15625 C -29.867188 -153.664062 -24.128906 -155.828125 -18.078125 -158.640625 C -12.023438 -161.453125 -6.957031 -165.414062 -2.875 -170.53125 C 2.34375 -176.4375 4.535156 -181.785156 3.703125 -186.578125 C 2.878906 -191.378906 -0.597656 -192.300781 -6.734375 -189.34375 Z M -6.734375 -189.34375 "/></g></g><g style="fill:#373434;fill-opacity:1;"><g transform="translate(235.562665, 210.536127)"><path style="stroke:none" d="M 12.375 -19.921875 C 9.96875 -19.921875 8.066406 -19.117188 6.671875 -17.515625 C 5.285156 -15.921875 4.59375 -13.726562 4.59375 -10.9375 C 4.59375 -8.070312 5.265625 -5.859375 6.609375 -4.296875 C 7.953125 -2.734375 9.863281 -1.953125 12.34375 -1.953125 C 13.875 -1.953125 15.617188 -2.226562 17.578125 -2.78125 L 17.578125 -0.546875 C 16.054688 0.015625 14.179688 0.296875 11.953125 0.296875 C 8.734375 0.296875 6.25 -0.675781 4.5 -2.625 C 2.75 -4.582031 1.875 -7.363281 1.875 -10.96875 C 1.875 -13.226562 2.296875 -15.203125 3.140625 -16.890625 C 3.984375 -18.585938 5.195312 -19.894531 6.78125 -20.8125 C 8.375 -21.738281 10.25 -22.203125 12.40625 -22.203125 C 14.707031 -22.203125 16.710938 -21.78125 18.421875 -20.9375 L 17.34375 -18.75 C 15.6875 -19.53125 14.03125 -19.921875 12.375 -19.921875 Z M 12.375 -19.921875 "/></g></g><g style="fill:#373434;fill-opacity:1;"><g transform="translate(267.169758, 210.536127)"><path style="stroke:none" d="M 16.765625 0 L 14.046875 -6.953125 L 5.265625 -6.953125 L 2.578125 0 L 0 0 L 8.65625 -21.96875 L 10.796875 -21.96875 L 19.40625 0 Z M 13.25 -9.25 L 10.703125 -16.03125 C 10.367188 -16.882812 10.03125 -17.9375 9.6875 -19.1875 C 9.46875 -18.226562 9.148438 -17.175781 8.734375 -16.03125 L 6.171875 -9.25 Z M 13.25 -9.25 "/></g></g><g style="fill:#373434;fill-opacity:1;"><g transform="translate(298.836719, 210.536127)"><path style="stroke:none" d="M 16.890625 -15.5 C 16.890625 -13.289062 16.128906 -11.585938 14.609375 -10.390625 C 13.097656 -9.203125 10.9375 -8.609375 8.125 -8.609375 L 5.546875 -8.609375 L 5.546875 0 L 3.015625 0 L 3.015625 -21.890625 L 8.6875 -21.890625 C 14.15625 -21.890625 16.890625 -19.757812 16.890625 -15.5 Z M 5.546875 -10.796875 L 7.84375 -10.796875 C 10.101562 -10.796875 11.734375 -11.160156 12.734375 -11.890625 C 13.742188 -12.617188 14.25 -13.785156 14.25 -15.390625 C 14.25 -16.835938 13.773438 -17.914062 12.828125 -18.625 C 11.878906 -19.332031 10.398438 -19.6875 8.390625 -19.6875 L 5.546875 -19.6875 Z M 5.546875 -10.796875 "/></g></g><g style="fill:#373434;fill-opacity:1;"><g transform="translate(329.560756, 210.536127)"><path style="stroke:none" d="M 9.75 0 L 7.203125 0 L 7.203125 -19.625 L 0.265625 -19.625 L 0.265625 -21.890625 L 16.671875 -21.890625 L 16.671875 -19.625 L 9.75 -19.625 Z M 9.75 0 "/></g></g><g style="fill:#373434;fill-opacity:1;"><g transform="translate(358.788085, 210.536127)"><path style="stroke:none" d="M 19.53125 -21.890625 L 19.53125 -7.71875 C 19.53125 -5.226562 18.773438 -3.269531 17.265625 -1.84375 C 15.765625 -0.414062 13.695312 0.296875 11.0625 0.296875 C 8.425781 0.296875 6.382812 -0.421875 4.9375 -1.859375 C 3.5 -3.296875 2.78125 -5.269531 2.78125 -7.78125 L 2.78125 -21.890625 L 5.328125 -21.890625 L 5.328125 -7.609375 C 5.328125 -5.773438 5.828125 -4.367188 6.828125 -3.390625 C 7.828125 -2.421875 9.296875 -1.9375 11.234375 -1.9375 C 13.078125 -1.9375 14.492188 -2.425781 15.484375 -3.40625 C 16.484375 -4.382812 16.984375 -5.796875 16.984375 -7.640625 L 16.984375 -21.890625 Z M 19.53125 -21.890625 "/></g></g><g style="fill:#373434;fill-opacity:1;"><g transform="translate(393.373625, 210.536127)"><path style="stroke:none" d="M 5.546875 -9.09375 L 5.546875 0 L 3.015625 0 L 3.015625 -21.890625 L 9.015625 -21.890625 C 11.691406 -21.890625 13.671875 -21.375 14.953125 -20.34375 C 16.242188 -19.3125 16.890625 -17.765625 16.890625 -15.703125 C 16.890625 -12.804688 15.421875 -10.847656 12.484375 -9.828125 L 18.421875 0 L 15.421875 0 L 10.125 -9.09375 Z M 5.546875 -11.28125 L 9.046875 -11.28125 C 10.835938 -11.28125 12.148438 -11.632812 12.984375 -12.34375 C 13.828125 -13.0625 14.25 -14.132812 14.25 -15.5625 C 14.25 -17.007812 13.820312 -18.050781 12.96875 -18.6875 C 12.113281 -19.332031 10.742188 -19.65625 8.859375 -19.65625 L 5.546875 -19.65625 Z M 5.546875 -11.28125 "/></g></g><g style="fill:#373434;fill-opacity:1;"><g transform="translate(424.591574, 210.536127)"><path style="stroke:none" d="M 15.203125 0 L 3.015625 0 L 3.015625 -21.890625 L 15.203125 -21.890625 L 15.203125 -19.625 L 5.546875 -19.625 L 5.546875 -12.578125 L 14.625 -12.578125 L 14.625 -10.328125 L 5.546875 -10.328125 L 5.546875 -2.28125 L 15.203125 -2.28125 Z M 15.203125 0 "/></g></g><g style="fill:#373434;fill-opacity:1;"><g transform="translate(453.908706, 210.536127)"><path style="stroke:none" d=""/></g></g><g style="fill:#373434;fill-opacity:1;"><g transform="translate(474.140826, 210.536127)"><path style="stroke:none" d="M 9.75 0 L 7.203125 0 L 7.203125 -19.625 L 0.265625 -19.625 L 0.265625 -21.890625 L 16.671875 -21.890625 L 16.671875 -19.625 L 9.75 -19.625 Z M 9.75 0 "/></g></g><g style="fill:#373434;fill-opacity:1;"><g transform="translate(503.368155, 210.536127)"><path style="stroke:none" d="M 19.625 0 L 17.078125 0 L 17.078125 -10.296875 L 5.546875 -10.296875 L 5.546875 0 L 3.015625 0 L 3.015625 -21.890625 L 5.546875 -21.890625 L 5.546875 -12.578125 L 17.078125 -12.578125 L 17.078125 -21.890625 L 19.625 -21.890625 Z M 19.625 0 "/></g></g><g style="fill:#373434;fill-opacity:1;"><g transform="translate(538.253036, 210.536127)"><path style="stroke:none" d="M 15.203125 0 L 3.015625 0 L 3.015625 -21.890625 L 15.203125 -21.890625 L 15.203125 -19.625 L 5.546875 -19.625 L 5.546875 -12.578125 L 14.625 -12.578125 L 14.625 -10.328125 L 5.546875 -10.328125 L 5.546875 -2.28125 L 15.203125 -2.28125 Z M 15.203125 0 "/></g></g><g style="fill:#373434;fill-opacity:1;"><g transform="translate(255.255893, 641.506735)"><path style="stroke:none" d="M 15.25 0 L 12.765625 -6.328125 L 4.796875 -6.328125 L 2.34375 0 L 0 0 L 7.859375 -19.984375 L 9.8125 -19.984375 L 17.640625 0 Z M 12.046875 -8.40625 L 9.734375 -14.578125 C 9.429688 -15.359375 9.125 -16.316406 8.8125 -17.453125 C 8.601562 -16.578125 8.316406 -15.617188 7.953125 -14.578125 L 5.609375 -8.40625 Z M 12.046875 -8.40625 "/></g></g><g style="fill:#373434;fill-opacity:1;"><g transform="translate(281.25558, 641.506735)"><path style="stroke:none" d="M 18.28125 0 L 15.640625 0 L 4.765625 -16.703125 L 4.65625 -16.703125 C 4.800781 -14.742188 4.875 -12.945312 4.875 -11.3125 L 4.875 0 L 2.734375 0 L 2.734375 -19.90625 L 5.34375 -19.90625 L 16.203125 -3.265625 L 16.3125 -3.265625 C 16.289062 -3.515625 16.25 -4.300781 16.1875 -5.625 C 16.125 -6.957031 16.097656 -7.910156 16.109375 -8.484375 L 16.109375 -19.90625 L 18.28125 -19.90625 Z M 18.28125 0 "/></g></g><g style="fill:#373434;fill-opacity:1;"><g transform="translate(310.630021, 641.506735)"><path style="stroke:none" d="M 18.625 -10.140625 C 18.625 -6.859375 17.726562 -4.347656 15.9375 -2.609375 C 14.15625 -0.867188 11.59375 0 8.25 0 L 2.734375 0 L 2.734375 -19.90625 L 8.828125 -19.90625 C 11.921875 -19.90625 14.328125 -19.046875 16.046875 -17.328125 C 17.765625 -15.609375 18.625 -13.210938 18.625 -10.140625 Z M 16.171875 -10.0625 C 16.171875 -12.65625 15.519531 -14.609375 14.21875 -15.921875 C 12.914062 -17.234375 10.976562 -17.890625 8.40625 -17.890625 L 5.046875 -17.890625 L 5.046875 -2 L 7.859375 -2 C 10.617188 -2 12.691406 -2.675781 14.078125 -4.03125 C 15.472656 -5.394531 16.171875 -7.40625 16.171875 -10.0625 Z M 16.171875 -10.0625 "/></g></g><g style="fill:#373434;fill-opacity:1;"><g transform="translate(339.310477, 641.506735)"><path style="stroke:none" d=""/></g></g><g style="fill:#373434;fill-opacity:1;"><g transform="translate(354.913743, 641.506735)"><path style="stroke:none" d="M 13.96875 -5.296875 C 13.96875 -3.546875 13.332031 -2.179688 12.0625 -1.203125 C 10.789062 -0.222656 9.066406 0.265625 6.890625 0.265625 C 4.523438 0.265625 2.707031 -0.0351562 1.4375 -0.640625 L 1.4375 -2.875 C 2.257812 -2.53125 3.148438 -2.253906 4.109375 -2.046875 C 5.066406 -1.847656 6.019531 -1.75 6.96875 -1.75 C 8.507812 -1.75 9.671875 -2.039062 10.453125 -2.625 C 11.234375 -3.21875 11.625 -4.035156 11.625 -5.078125 C 11.625 -5.765625 11.484375 -6.328125 11.203125 -6.765625 C 10.929688 -7.210938 10.46875 -7.617188 9.8125 -7.984375 C 9.164062 -8.359375 8.179688 -8.78125 6.859375 -9.25 C 5.003906 -9.914062 3.679688 -10.703125 2.890625 -11.609375 C 2.097656 -12.515625 1.703125 -13.695312 1.703125 -15.15625 C 1.703125 -16.695312 2.273438 -17.921875 3.421875 -18.828125 C 4.578125 -19.734375 6.101562 -20.1875 8 -20.1875 C 9.976562 -20.1875 11.800781 -19.820312 13.46875 -19.09375 L 12.734375 -17.078125 C 11.097656 -17.765625 9.503906 -18.109375 7.953125 -18.109375 C 6.722656 -18.109375 5.765625 -17.84375 5.078125 -17.3125 C 4.390625 -16.789062 4.046875 -16.066406 4.046875 -15.140625 C 4.046875 -14.441406 4.171875 -13.875 4.421875 -13.4375 C 4.671875 -13 5.097656 -12.59375 5.703125 -12.21875 C 6.304688 -11.851562 7.234375 -11.453125 8.484375 -11.015625 C 10.566406 -10.265625 12 -9.460938 12.78125 -8.609375 C 13.570312 -7.765625 13.96875 -6.660156 13.96875 -5.296875 Z M 13.96875 -5.296875 "/></g></g><g style="fill:#373434;fill-opacity:1;"><g transform="translate(378.572874, 641.506735)"><path style="stroke:none" d="M 17.84375 0 L 15.53125 0 L 15.53125 -9.359375 L 5.046875 -9.359375 L 5.046875 0 L 2.734375 0 L 2.734375 -19.90625 L 5.046875 -19.90625 L 5.046875 -11.4375 L 15.53125 -11.4375 L 15.53125 -19.90625 L 17.84375 -19.90625 Z M 17.84375 0 "/></g></g><g style="fill:#373434;fill-opacity:1;"><g transform="translate(407.498271, 641.506735)"><path style="stroke:none" d="M 15.25 0 L 12.765625 -6.328125 L 4.796875 -6.328125 L 2.34375 0 L 0 0 L 7.859375 -19.984375 L 9.8125 -19.984375 L 17.640625 0 Z M 12.046875 -8.40625 L 9.734375 -14.578125 C 9.429688 -15.359375 9.125 -16.316406 8.8125 -17.453125 C 8.601562 -16.578125 8.316406 -15.617188 7.953125 -14.578125 L 5.609375 -8.40625 Z M 12.046875 -8.40625 "/></g></g><g style="fill:#373434;fill-opacity:1;"><g transform="translate(433.497958, 641.506735)"><path style="stroke:none" d="M 5.046875 -8.28125 L 5.046875 0 L 2.734375 0 L 2.734375 -19.90625 L 8.1875 -19.90625 C 10.632812 -19.90625 12.441406 -19.4375 13.609375 -18.5 C 14.773438 -17.5625 15.359375 -16.15625 15.359375 -14.28125 C 15.359375 -11.644531 14.019531 -9.863281 11.34375 -8.9375 L 16.75 0 L 14.015625 0 L 9.203125 -8.28125 Z M 5.046875 -10.265625 L 8.21875 -10.265625 C 9.851562 -10.265625 11.050781 -10.585938 11.8125 -11.234375 C 12.570312 -11.878906 12.953125 -12.851562 12.953125 -14.15625 C 12.953125 -15.46875 12.5625 -16.414062 11.78125 -17 C 11.007812 -17.582031 9.769531 -17.875 8.0625 -17.875 L 5.046875 -17.875 Z M 5.046875 -10.265625 "/></g></g><g style="fill:#373434;fill-opacity:1;"><g transform="translate(459.089409, 641.506735)"><path style="stroke:none" d="M 13.828125 0 L 2.734375 0 L 2.734375 -19.90625 L 13.828125 -19.90625 L 13.828125 -17.84375 L 5.046875 -17.84375 L 5.046875 -11.4375 L 13.296875 -11.4375 L 13.296875 -9.390625 L 5.046875 -9.390625 L 5.046875 -2.0625 L 13.828125 -2.0625 Z M 13.828125 0 "/></g></g><g style="fill:#373434;fill-opacity:1;"><g transform="translate(482.952675, 641.506735)"><path style="stroke:none" d=""/></g></g><g style="fill:#373434;fill-opacity:1;"><g transform="translate(498.555941, 641.506735)"><path style="stroke:none" d="M 7.796875 -9.953125 L 13.109375 -19.90625 L 15.609375 -19.90625 L 8.96875 -7.71875 L 8.96875 0 L 6.625 0 L 6.625 -7.609375 L 0 -19.90625 L 2.53125 -19.90625 Z M 7.796875 -9.953125 "/></g></g><g style="fill:#373434;fill-opacity:1;"><g transform="translate(522.52807, 641.506735)"><path style="stroke:none" d="M 20.015625 -9.984375 C 20.015625 -6.796875 19.207031 -4.289062 17.59375 -2.46875 C 15.976562 -0.644531 13.738281 0.265625 10.875 0.265625 C 7.945312 0.265625 5.6875 -0.628906 4.09375 -2.421875 C 2.5 -4.210938 1.703125 -6.738281 1.703125 -10 C 1.703125 -13.238281 2.5 -15.75 4.09375 -17.53125 C 5.695312 -19.320312 7.96875 -20.21875 10.90625 -20.21875 C 13.757812 -20.21875 15.988281 -19.304688 17.59375 -17.484375 C 19.207031 -15.671875 20.015625 -13.171875 20.015625 -9.984375 Z M 4.15625 -9.984375 C 4.15625 -7.285156 4.726562 -5.238281 5.875 -3.84375 C 7.019531 -2.445312 8.6875 -1.75 10.875 -1.75 C 13.082031 -1.75 14.75 -2.441406 15.875 -3.828125 C 17 -5.222656 17.5625 -7.273438 17.5625 -9.984375 C 17.5625 -12.648438 17 -14.675781 15.875 -16.0625 C 14.757812 -17.445312 13.101562 -18.140625 10.90625 -18.140625 C 8.695312 -18.140625 7.019531 -17.441406 5.875 -16.046875 C 4.726562 -14.660156 4.15625 -12.640625 4.15625 -9.984375 Z M 4.15625 -9.984375 "/></g></g><g style="fill:#373434;fill-opacity:1;"><g transform="translate(552.596529, 641.506735)"><path style="stroke:none" d="M 17.765625 -19.90625 L 17.765625 -7.015625 C 17.765625 -4.753906 17.078125 -2.972656 15.703125 -1.671875 C 14.335938 -0.378906 12.457031 0.265625 10.0625 0.265625 C 7.664062 0.265625 5.8125 -0.382812 4.5 -1.6875 C 3.1875 -2.988281 2.53125 -4.785156 2.53125 -7.078125 L 2.53125 -19.90625 L 4.84375 -19.90625 L 4.84375 -6.921875 C 4.84375 -5.253906 5.296875 -3.972656 6.203125 -3.078125 C 7.109375 -2.191406 8.441406 -1.75 10.203125 -1.75 C 11.878906 -1.75 13.171875 -2.195312 14.078125 -3.09375 C 14.992188 -3.988281 15.453125 -5.269531 15.453125 -6.9375 L 15.453125 -19.90625 Z M 17.765625 -19.90625 "/></g></g><g style="fill:#373434;fill-opacity:1;"><g transform="translate(581.249768, 641.506735)"><path style="stroke:none" d="M 5.046875 -8.28125 L 5.046875 0 L 2.734375 0 L 2.734375 -19.90625 L 8.1875 -19.90625 C 10.632812 -19.90625 12.441406 -19.4375 13.609375 -18.5 C 14.773438 -17.5625 15.359375 -16.15625 15.359375 -14.28125 C 15.359375 -11.644531 14.019531 -9.863281 11.34375 -8.9375 L 16.75 0 L 14.015625 0 L 9.203125 -8.28125 Z M 5.046875 -10.265625 L 8.21875 -10.265625 C 9.851562 -10.265625 11.050781 -10.585938 11.8125 -11.234375 C 12.570312 -11.878906 12.953125 -12.851562 12.953125 -14.15625 C 12.953125 -15.46875 12.5625 -16.414062 11.78125 -17 C 11.007812 -17.582031 9.769531 -17.875 8.0625 -17.875 L 5.046875 -17.875 Z M 5.046875 -10.265625 "/></g></g><g style="fill:#373434;fill-opacity:1;"><g transform="translate(256.958813, 685.520666)"><path style="stroke:none" d="M 15.359375 -14.09375 C 15.359375 -12.082031 14.671875 -10.535156 13.296875 -9.453125 C 11.921875 -8.367188 9.953125 -7.828125 7.390625 -7.828125 L 5.046875 -7.828125 L 5.046875 0 L 2.734375 0 L 2.734375 -19.90625 L 7.890625 -19.90625 C 12.867188 -19.90625 15.359375 -17.96875 15.359375 -14.09375 Z M 5.046875 -9.8125 L 7.125 -9.8125 C 9.175781 -9.8125 10.660156 -10.140625 11.578125 -10.796875 C 12.492188 -11.460938 12.953125 -12.523438 12.953125 -13.984375 C 12.953125 -15.304688 12.519531 -16.285156 11.65625 -16.921875 C 10.800781 -17.566406 9.460938 -17.890625 7.640625 -17.890625 L 5.046875 -17.890625 Z M 5.046875 -9.8125 "/></g></g><g style="fill:#373434;fill-opacity:1;"><g transform="translate(282.101219, 685.520666)"><path style="stroke:none" d="M 17.84375 0 L 15.53125 0 L 15.53125 -9.359375 L 5.046875 -9.359375 L 5.046875 0 L 2.734375 0 L 2.734375 -19.90625 L 5.046875 -19.90625 L 5.046875 -11.4375 L 15.53125 -11.4375 L 15.53125 -19.90625 L 17.84375 -19.90625 Z M 17.84375 0 "/></g></g><g style="fill:#373434;fill-opacity:1;"><g transform="translate(311.026616, 685.520666)"><path style="stroke:none" d="M 20.015625 -9.984375 C 20.015625 -6.796875 19.207031 -4.289062 17.59375 -2.46875 C 15.976562 -0.644531 13.738281 0.265625 10.875 0.265625 C 7.945312 0.265625 5.6875 -0.628906 4.09375 -2.421875 C 2.5 -4.210938 1.703125 -6.738281 1.703125 -10 C 1.703125 -13.238281 2.5 -15.75 4.09375 -17.53125 C 5.695312 -19.320312 7.96875 -20.21875 10.90625 -20.21875 C 13.757812 -20.21875 15.988281 -19.304688 17.59375 -17.484375 C 19.207031 -15.671875 20.015625 -13.171875 20.015625 -9.984375 Z M 4.15625 -9.984375 C 4.15625 -7.285156 4.726562 -5.238281 5.875 -3.84375 C 7.019531 -2.445312 8.6875 -1.75 10.875 -1.75 C 13.082031 -1.75 14.75 -2.441406 15.875 -3.828125 C 17 -5.222656 17.5625 -7.273438 17.5625 -9.984375 C 17.5625 -12.648438 17 -14.675781 15.875 -16.0625 C 14.757812 -17.445312 13.101562 -18.140625 10.90625 -18.140625 C 8.695312 -18.140625 7.019531 -17.441406 5.875 -16.046875 C 4.726562 -14.660156 4.15625 -12.640625 4.15625 -9.984375 Z M 4.15625 -9.984375 "/></g></g><g style="fill:#373434;fill-opacity:1;"><g transform="translate(341.095076, 685.520666)"><path style="stroke:none" d="M 8.859375 0 L 6.546875 0 L 6.546875 -17.84375 L 0.25 -17.84375 L 0.25 -19.90625 L 15.15625 -19.90625 L 15.15625 -17.84375 L 8.859375 -17.84375 Z M 8.859375 0 "/></g></g><g style="fill:#373434;fill-opacity:1;"><g transform="translate(364.876694, 685.520666)"><path style="stroke:none" d="M 20.015625 -9.984375 C 20.015625 -6.796875 19.207031 -4.289062 17.59375 -2.46875 C 15.976562 -0.644531 13.738281 0.265625 10.875 0.265625 C 7.945312 0.265625 5.6875 -0.628906 4.09375 -2.421875 C 2.5 -4.210938 1.703125 -6.738281 1.703125 -10 C 1.703125 -13.238281 2.5 -15.75 4.09375 -17.53125 C 5.695312 -19.320312 7.96875 -20.21875 10.90625 -20.21875 C 13.757812 -20.21875 15.988281 -19.304688 17.59375 -17.484375 C 19.207031 -15.671875 20.015625 -13.171875 20.015625 -9.984375 Z M 4.15625 -9.984375 C 4.15625 -7.285156 4.726562 -5.238281 5.875 -3.84375 C 7.019531 -2.445312 8.6875 -1.75 10.875 -1.75 C 13.082031 -1.75 14.75 -2.441406 15.875 -3.828125 C 17 -5.222656 17.5625 -7.273438 17.5625 -9.984375 C 17.5625 -12.648438 17 -14.675781 15.875 -16.0625 C 14.757812 -17.445312 13.101562 -18.140625 10.90625 -18.140625 C 8.695312 -18.140625 7.019531 -17.441406 5.875 -16.046875 C 4.726562 -14.660156 4.15625 -12.640625 4.15625 -9.984375 Z M 4.15625 -9.984375 "/></g></g><g style="fill:#373434;fill-opacity:1;"><g transform="translate(394.945154, 685.520666)"><path style="stroke:none" d="M 13.96875 -5.296875 C 13.96875 -3.546875 13.332031 -2.179688 12.0625 -1.203125 C 10.789062 -0.222656 9.066406 0.265625 6.890625 0.265625 C 4.523438 0.265625 2.707031 -0.0351562 1.4375 -0.640625 L 1.4375 -2.875 C 2.257812 -2.53125 3.148438 -2.253906 4.109375 -2.046875 C 5.066406 -1.847656 6.019531 -1.75 6.96875 -1.75 C 8.507812 -1.75 9.671875 -2.039062 10.453125 -2.625 C 11.234375 -3.21875 11.625 -4.035156 11.625 -5.078125 C 11.625 -5.765625 11.484375 -6.328125 11.203125 -6.765625 C 10.929688 -7.210938 10.46875 -7.617188 9.8125 -7.984375 C 9.164062 -8.359375 8.179688 -8.78125 6.859375 -9.25 C 5.003906 -9.914062 3.679688 -10.703125 2.890625 -11.609375 C 2.097656 -12.515625 1.703125 -13.695312 1.703125 -15.15625 C 1.703125 -16.695312 2.273438 -17.921875 3.421875 -18.828125 C 4.578125 -19.734375 6.101562 -20.1875 8 -20.1875 C 9.976562 -20.1875 11.800781 -19.820312 13.46875 -19.09375 L 12.734375 -17.078125 C 11.097656 -17.765625 9.503906 -18.109375 7.953125 -18.109375 C 6.722656 -18.109375 5.765625 -17.84375 5.078125 -17.3125 C 4.390625 -16.789062 4.046875 -16.066406 4.046875 -15.140625 C 4.046875 -14.441406 4.171875 -13.875 4.421875 -13.4375 C 4.671875 -13 5.097656 -12.59375 5.703125 -12.21875 C 6.304688 -11.851562 7.234375 -11.453125 8.484375 -11.015625 C 10.566406 -10.265625 12 -9.460938 12.78125 -8.609375 C 13.570312 -7.765625 13.96875 -6.660156 13.96875 -5.296875 Z M 13.96875 -5.296875 "/></g></g><g style="fill:#373434;fill-opacity:1;"><g transform="translate(418.604285, 685.520666)"><path style="stroke:none" d=""/></g></g><g style="fill:#373434;fill-opacity:1;"><g transform="translate(434.207551, 685.520666)"><path style="stroke:none" d="M 20.109375 0 L 17.8125 0 L 13.796875 -13.328125 C 13.609375 -13.910156 13.394531 -14.648438 13.15625 -15.546875 C 12.925781 -16.453125 12.804688 -16.992188 12.796875 -17.171875 C 12.597656 -15.972656 12.28125 -14.664062 11.84375 -13.25 L 7.953125 0 L 5.65625 0 L 0.375 -19.90625 L 2.8125 -19.90625 L 5.96875 -7.609375 C 6.394531 -5.878906 6.710938 -4.316406 6.921875 -2.921875 C 7.160156 -4.585938 7.519531 -6.210938 8 -7.796875 L 11.5625 -19.90625 L 14.015625 -19.90625 L 17.765625 -7.6875 C 18.203125 -6.28125 18.566406 -4.691406 18.859375 -2.921875 C 19.035156 -4.210938 19.363281 -5.785156 19.84375 -7.640625 L 22.96875 -19.90625 L 25.421875 -19.90625 Z M 20.109375 0 "/></g></g><g style="fill:#373434;fill-opacity:1;"><g transform="translate(468.371966, 685.520666)"><path style="stroke:none" d="M 2.734375 0 L 2.734375 -19.90625 L 5.046875 -19.90625 L 5.046875 0 Z M 2.734375 0 "/></g></g><g style="fill:#373434;fill-opacity:1;"><g transform="translate(484.505956, 685.520666)"><path style="stroke:none" d="M 8.859375 0 L 6.546875 0 L 6.546875 -17.84375 L 0.25 -17.84375 L 0.25 -19.90625 L 15.15625 -19.90625 L 15.15625 -17.84375 L 8.859375 -17.84375 Z M 8.859375 0 "/></g></g><g style="fill:#373434;fill-opacity:1;"><g transform="translate(508.287574, 685.520666)"><path style="stroke:none" d="M 17.84375 0 L 15.53125 0 L 15.53125 -9.359375 L 5.046875 -9.359375 L 5.046875 0 L 2.734375 0 L 2.734375 -19.90625 L 5.046875 -19.90625 L 5.046875 -11.4375 L 15.53125 -11.4375 L 15.53125 -19.90625 L 17.84375 -19.90625 Z M 17.84375 0 "/></g></g><g style="fill:#373434;fill-opacity:1;"><g transform="translate(537.212972, 685.520666)"><path style="stroke:none" d=""/></g></g><g style="fill:#373434;fill-opacity:1;"><g transform="translate(552.816238, 685.520666)"><path style="stroke:none" d="M 17.765625 -19.90625 L 17.765625 -7.015625 C 17.765625 -4.753906 17.078125 -2.972656 15.703125 -1.671875 C 14.335938 -0.378906 12.457031 0.265625 10.0625 0.265625 C 7.664062 0.265625 5.8125 -0.382812 4.5 -1.6875 C 3.1875 -2.988281 2.53125 -4.785156 2.53125 -7.078125 L 2.53125 -19.90625 L 4.84375 -19.90625 L 4.84375 -6.921875 C 4.84375 -5.253906 5.296875 -3.972656 6.203125 -3.078125 C 7.109375 -2.191406 8.441406 -1.75 10.203125 -1.75 C 11.878906 -1.75 13.171875 -2.195312 14.078125 -3.09375 C 14.992188 -3.988281 15.453125 -5.269531 15.453125 -6.9375 L 15.453125 -19.90625 Z M 17.765625 -19.90625 "/></g></g><g style="fill:#373434;fill-opacity:1;"><g transform="translate(581.469477, 685.520666)"><path style="stroke:none" d="M 13.96875 -5.296875 C 13.96875 -3.546875 13.332031 -2.179688 12.0625 -1.203125 C 10.789062 -0.222656 9.066406 0.265625 6.890625 0.265625 C 4.523438 0.265625 2.707031 -0.0351562 1.4375 -0.640625 L 1.4375 -2.875 C 2.257812 -2.53125 3.148438 -2.253906 4.109375 -2.046875 C 5.066406 -1.847656 6.019531 -1.75 6.96875 -1.75 C 8.507812 -1.75 9.671875 -2.039062 10.453125 -2.625 C 11.234375 -3.21875 11.625 -4.035156 11.625 -5.078125 C 11.625 -5.765625 11.484375 -6.328125 11.203125 -6.765625 C 10.929688 -7.210938 10.46875 -7.617188 9.8125 -7.984375 C 9.164062 -8.359375 8.179688 -8.78125 6.859375 -9.25 C 5.003906 -9.914062 3.679688 -10.703125 2.890625 -11.609375 C 2.097656 -12.515625 1.703125 -13.695312 1.703125 -15.15625 C 1.703125 -16.695312 2.273438 -17.921875 3.421875 -18.828125 C 4.578125 -19.734375 6.101562 -20.1875 8 -20.1875 C 9.976562 -20.1875 11.800781 -19.820312 13.46875 -19.09375 L 12.734375 -17.078125 C 11.097656 -17.765625 9.503906 -18.109375 7.953125 -18.109375 C 6.722656 -18.109375 5.765625 -17.84375 5.078125 -17.3125 C 4.390625 -16.789062 4.046875 -16.066406 4.046875 -15.140625 C 4.046875 -14.441406 4.171875 -13.875 4.421875 -13.4375 C 4.671875 -13 5.097656 -12.59375 5.703125 -12.21875 C 6.304688 -11.851562 7.234375 -11.453125 8.484375 -11.015625 C 10.566406 -10.265625 12 -9.460938 12.78125 -8.609375 C 13.570312 -7.765625 13.96875 -6.660156 13.96875 -5.296875 Z M 13.96875 -5.296875 "/></g></g><g style="fill:#373434;fill-opacity:1;"><g transform="translate(161.788611, 801.720585)"><path style="stroke:none" d="M 9 -3.8125 C 9 -2.53125 8.546875 -1.53125 7.640625 -0.8125 C 6.742188 -0.101562 5.472656 0.25 3.828125 0.25 C 2.453125 0.25 1.207031 -0.03125 0.09375 -0.59375 L 0.09375 -2.53125 C 0.664062 -2.1875 1.28125 -1.921875 1.9375 -1.734375 C 2.601562 -1.546875 3.21875 -1.453125 3.78125 -1.453125 C 4.8125 -1.453125 5.585938 -1.65625 6.109375 -2.0625 C 6.628906 -2.476562 6.890625 -3.003906 6.890625 -3.640625 C 6.890625 -4.097656 6.742188 -4.488281 6.453125 -4.8125 C 6.171875 -5.132812 5.554688 -5.570312 4.609375 -6.125 C 3.554688 -6.71875 2.804688 -7.300781 2.359375 -7.875 C 1.921875 -8.445312 1.703125 -9.125 1.703125 -9.90625 C 1.703125 -11.03125 2.113281 -11.9375 2.9375 -12.625 C 3.757812 -13.320312 4.847656 -13.671875 6.203125 -13.671875 C 7.597656 -13.671875 8.941406 -13.367188 10.234375 -12.765625 L 9.578125 -11.078125 L 8.890625 -11.390625 C 8.066406 -11.742188 7.171875 -11.921875 6.203125 -11.921875 C 5.441406 -11.921875 4.84375 -11.738281 4.40625 -11.375 C 3.976562 -11.019531 3.765625 -10.5625 3.765625 -10 C 3.765625 -9.539062 3.90625 -9.148438 4.1875 -8.828125 C 4.476562 -8.503906 5.078125 -8.082031 5.984375 -7.5625 C 6.859375 -7.070312 7.484375 -6.648438 7.859375 -6.296875 C 8.242188 -5.953125 8.53125 -5.578125 8.71875 -5.171875 C 8.90625 -4.765625 9 -4.3125 9 -3.8125 Z M 9 -3.8125 "/></g></g><g style="fill:#373434;fill-opacity:1;"><g transform="translate(178.801985, 801.720585)"><path style="stroke:none" d="M 6.203125 0.25 C 4.617188 0.25 3.390625 -0.1875 2.515625 -1.0625 C 1.640625 -1.9375 1.203125 -3.171875 1.203125 -4.765625 C 1.203125 -6.398438 1.503906 -7.90625 2.109375 -9.28125 C 2.710938 -10.65625 3.546875 -11.726562 4.609375 -12.5 C 5.671875 -13.28125 6.867188 -13.671875 8.203125 -13.671875 C 9.316406 -13.671875 10.410156 -13.460938 11.484375 -13.046875 L 10.90625 -11.3125 C 9.925781 -11.726562 9.035156 -11.9375 8.234375 -11.9375 C 7.316406 -11.9375 6.476562 -11.625 5.71875 -11 C 4.96875 -10.375 4.378906 -9.503906 3.953125 -8.390625 C 3.523438 -7.273438 3.3125 -6.066406 3.3125 -4.765625 C 3.3125 -3.722656 3.582031 -2.910156 4.125 -2.328125 C 4.664062 -1.742188 5.414062 -1.453125 6.375 -1.453125 C 6.957031 -1.453125 7.507812 -1.535156 8.03125 -1.703125 C 8.550781 -1.867188 9.066406 -2.0625 9.578125 -2.28125 L 9.578125 -0.53125 C 8.566406 -0.0078125 7.441406 0.25 6.203125 0.25 Z M 6.203125 0.25 "/></g></g><g style="fill:#373434;fill-opacity:1;"><g transform="translate(196.366549, 801.720585)"><path style="stroke:none" d="M 7.828125 -13.671875 C 8.578125 -13.671875 9.242188 -13.46875 9.828125 -13.0625 C 10.421875 -12.65625 10.878906 -12.070312 11.203125 -11.3125 L 11.34375 -11.3125 L 12.15625 -13.421875 L 13.71875 -13.421875 L 10.859375 0 L 9.234375 0 L 9.546875 -2.5625 L 9.453125 -2.5625 C 7.992188 -0.6875 6.457031 0.25 4.84375 0.25 C 3.707031 0.25 2.816406 -0.148438 2.171875 -0.953125 C 1.523438 -1.765625 1.203125 -2.875 1.203125 -4.28125 C 1.203125 -5.976562 1.488281 -7.550781 2.0625 -9 C 2.644531 -10.457031 3.445312 -11.597656 4.46875 -12.421875 C 5.488281 -13.253906 6.609375 -13.671875 7.828125 -13.671875 Z M 5.5 -1.453125 C 6.289062 -1.453125 7.078125 -1.828125 7.859375 -2.578125 C 8.640625 -3.335938 9.273438 -4.320312 9.765625 -5.53125 C 10.253906 -6.75 10.5 -7.96875 10.5 -9.1875 C 10.5 -10.019531 10.269531 -10.6875 9.8125 -11.1875 C 9.363281 -11.6875 8.765625 -11.9375 8.015625 -11.9375 C 7.171875 -11.9375 6.382812 -11.582031 5.65625 -10.875 C 4.925781 -10.175781 4.351562 -9.226562 3.9375 -8.03125 C 3.519531 -6.832031 3.3125 -5.566406 3.3125 -4.234375 C 3.3125 -3.304688 3.5 -2.609375 3.875 -2.140625 C 4.257812 -1.679688 4.800781 -1.453125 5.5 -1.453125 Z M 5.5 -1.453125 "/></g></g><g style="fill:#373434;fill-opacity:1;"><g transform="translate(216.809546, 801.720585)"><path style="stroke:none" d="M 8.921875 0 L 10.734375 -8.46875 C 10.898438 -9.320312 10.984375 -9.910156 10.984375 -10.234375 C 10.984375 -10.753906 10.835938 -11.164062 10.546875 -11.46875 C 10.253906 -11.78125 9.789062 -11.9375 9.15625 -11.9375 C 8.425781 -11.9375 7.71875 -11.691406 7.03125 -11.203125 C 6.34375 -10.710938 5.734375 -10.015625 5.203125 -9.109375 C 4.679688 -8.203125 4.285156 -7.101562 4.015625 -5.8125 L 2.78125 0 L 0.71875 0 L 3.59375 -13.421875 L 5.296875 -13.421875 L 5.015625 -10.9375 L 5.140625 -10.9375 C 5.921875 -11.925781 6.675781 -12.628906 7.40625 -13.046875 C 8.144531 -13.460938 8.90625 -13.671875 9.6875 -13.671875 C 10.71875 -13.671875 11.535156 -13.382812 12.140625 -12.8125 C 12.742188 -12.25 13.046875 -11.457031 13.046875 -10.4375 C 13.046875 -9.789062 12.953125 -9.054688 12.765625 -8.234375 L 11.015625 0 Z M 8.921875 0 "/></g></g><g style="fill:#373434;fill-opacity:1;"><g transform="translate(237.558758, 801.720585)"><path style="stroke:none" d=""/></g></g><g style="fill:#373434;fill-opacity:1;"><g transform="translate(250.346349, 801.720585)"><path style="stroke:none" d="M 4.84375 -1.4375 C 5.289062 -1.4375 5.875 -1.539062 6.59375 -1.75 L 6.59375 -0.171875 C 6.320312 -0.0546875 5.976562 0.0390625 5.5625 0.125 C 5.15625 0.207031 4.832031 0.25 4.59375 0.25 C 3.570312 0.25 2.789062 0.00390625 2.25 -0.484375 C 1.707031 -0.972656 1.4375 -1.695312 1.4375 -2.65625 C 1.4375 -3.195312 1.507812 -3.8125 1.65625 -4.5 L 3.203125 -11.859375 L 1.109375 -11.859375 L 1.28125 -12.765625 L 3.53125 -13.71875 L 5.0625 -16.5 L 6.265625 -16.5 L 5.59375 -13.421875 L 8.953125 -13.421875 L 8.640625 -11.859375 L 5.296875 -11.859375 L 3.703125 -4.46875 C 3.554688 -3.757812 3.484375 -3.222656 3.484375 -2.859375 C 3.484375 -2.398438 3.601562 -2.046875 3.84375 -1.796875 C 4.082031 -1.554688 4.414062 -1.4375 4.84375 -1.4375 Z M 4.84375 -1.4375 "/></g></g><g style="fill:#373434;fill-opacity:1;"><g transform="translate(264.750761, 801.720585)"><path style="stroke:none" d="M 8.921875 0 L 10.734375 -8.46875 C 10.878906 -9.238281 10.953125 -9.789062 10.953125 -10.125 C 10.953125 -11.332031 10.351562 -11.9375 9.15625 -11.9375 C 8.425781 -11.9375 7.71875 -11.695312 7.03125 -11.21875 C 6.34375 -10.738281 5.734375 -10.035156 5.203125 -9.109375 C 4.679688 -8.191406 4.285156 -7.085938 4.015625 -5.796875 L 2.78125 0 L 0.71875 0 L 4.765625 -19.046875 L 6.828125 -19.046875 C 6.671875 -18.378906 6.523438 -17.726562 6.390625 -17.09375 C 6.265625 -16.46875 6.128906 -15.832031 5.984375 -15.1875 C 5.835938 -14.539062 5.679688 -13.863281 5.515625 -13.15625 C 5.347656 -12.445312 5.15625 -11.675781 4.9375 -10.84375 L 5.0625 -10.84375 C 5.832031 -11.84375 6.59375 -12.554688 7.34375 -12.984375 C 8.09375 -13.421875 8.875 -13.640625 9.6875 -13.640625 C 10.757812 -13.640625 11.585938 -13.34375 12.171875 -12.75 C 12.753906 -12.164062 13.046875 -11.335938 13.046875 -10.265625 C 13.046875 -9.753906 12.953125 -9.078125 12.765625 -8.234375 C 12.441406 -6.648438 11.847656 -3.90625 10.984375 0 Z M 8.921875 0 "/></g></g><g style="fill:#373434;fill-opacity:1;"><g transform="translate(285.499974, 801.720585)"><path style="stroke:none" d="M 6.03125 0.25 C 4.519531 0.25 3.335938 -0.191406 2.484375 -1.078125 C 1.628906 -1.972656 1.203125 -3.207031 1.203125 -4.78125 C 1.203125 -6.320312 1.503906 -7.796875 2.109375 -9.203125 C 2.722656 -10.609375 3.53125 -11.703125 4.53125 -12.484375 C 5.53125 -13.273438 6.632812 -13.671875 7.84375 -13.671875 C 9.09375 -13.671875 10.03125 -13.394531 10.65625 -12.84375 C 11.289062 -12.300781 11.609375 -11.546875 11.609375 -10.578125 C 11.609375 -9.109375 10.929688 -7.953125 9.578125 -7.109375 C 8.222656 -6.273438 6.285156 -5.859375 3.765625 -5.859375 L 3.359375 -5.859375 L 3.3125 -4.890625 C 3.3125 -3.816406 3.5625 -2.976562 4.0625 -2.375 C 4.5625 -1.78125 5.335938 -1.484375 6.390625 -1.484375 C 6.898438 -1.484375 7.425781 -1.554688 7.96875 -1.703125 C 8.519531 -1.847656 9.195312 -2.117188 10 -2.515625 L 10 -0.71875 C 9.238281 -0.363281 8.5625 -0.113281 7.96875 0.03125 C 7.382812 0.175781 6.738281 0.25 6.03125 0.25 Z M 7.734375 -11.921875 C 6.890625 -11.921875 6.097656 -11.535156 5.359375 -10.765625 C 4.617188 -9.992188 4.050781 -8.925781 3.65625 -7.5625 L 3.8125 -7.5625 C 5.664062 -7.5625 7.085938 -7.804688 8.078125 -8.296875 C 9.078125 -8.785156 9.578125 -9.488281 9.578125 -10.40625 C 9.578125 -10.84375 9.425781 -11.203125 9.125 -11.484375 C 8.832031 -11.773438 8.367188 -11.921875 7.734375 -11.921875 Z M 7.734375 -11.921875 "/></g></g><g style="fill:#373434;fill-opacity:1;"><g transform="translate(304.142419, 801.720585)"><path style="stroke:none" d=""/></g></g><g style="fill:#373434;fill-opacity:1;"><g transform="translate(316.930009, 801.720585)"><path style="stroke:none" d="M 6.203125 0.25 C 4.617188 0.25 3.390625 -0.1875 2.515625 -1.0625 C 1.640625 -1.9375 1.203125 -3.171875 1.203125 -4.765625 C 1.203125 -6.398438 1.503906 -7.90625 2.109375 -9.28125 C 2.710938 -10.65625 3.546875 -11.726562 4.609375 -12.5 C 5.671875 -13.28125 6.867188 -13.671875 8.203125 -13.671875 C 9.316406 -13.671875 10.410156 -13.460938 11.484375 -13.046875 L 10.90625 -11.3125 C 9.925781 -11.726562 9.035156 -11.9375 8.234375 -11.9375 C 7.316406 -11.9375 6.476562 -11.625 5.71875 -11 C 4.96875 -10.375 4.378906 -9.503906 3.953125 -8.390625 C 3.523438 -7.273438 3.3125 -6.066406 3.3125 -4.765625 C 3.3125 -3.722656 3.582031 -2.910156 4.125 -2.328125 C 4.664062 -1.742188 5.414062 -1.453125 6.375 -1.453125 C 6.957031 -1.453125 7.507812 -1.535156 8.03125 -1.703125 C 8.550781 -1.867188 9.066406 -2.0625 9.578125 -2.28125 L 9.578125 -0.53125 C 8.566406 -0.0078125 7.441406 0.25 6.203125 0.25 Z M 6.203125 0.25 "/></g></g><g style="fill:#373434;fill-opacity:1;"><g transform="translate(334.494573, 801.720585)"><path style="stroke:none" d="M 7.875 -13.59375 C 9.425781 -13.59375 10.648438 -13.132812 11.546875 -12.21875 C 12.441406 -11.300781 12.890625 -10.035156 12.890625 -8.421875 C 12.890625 -6.890625 12.59375 -5.441406 12 -4.078125 C 11.414062 -2.710938 10.625 -1.65625 9.625 -0.90625 C 8.625 -0.164062 7.488281 0.203125 6.21875 0.203125 C 4.65625 0.203125 3.425781 -0.257812 2.53125 -1.1875 C 1.644531 -2.113281 1.203125 -3.375 1.203125 -4.96875 C 1.203125 -6.519531 1.5 -7.976562 2.09375 -9.34375 C 2.6875 -10.71875 3.488281 -11.769531 4.5 -12.5 C 5.519531 -13.226562 6.644531 -13.59375 7.875 -13.59375 Z M 10.765625 -8.703125 C 10.765625 -9.640625 10.507812 -10.398438 10 -10.984375 C 9.488281 -11.566406 8.796875 -11.859375 7.921875 -11.859375 C 7.035156 -11.859375 6.238281 -11.554688 5.53125 -10.953125 C 4.820312 -10.347656 4.273438 -9.507812 3.890625 -8.4375 C 3.503906 -7.363281 3.3125 -6.171875 3.3125 -4.859375 C 3.3125 -3.785156 3.566406 -2.957031 4.078125 -2.375 C 4.597656 -1.789062 5.34375 -1.5 6.3125 -1.5 C 7.164062 -1.5 7.929688 -1.796875 8.609375 -2.390625 C 9.285156 -2.992188 9.8125 -3.84375 10.1875 -4.9375 C 10.570312 -6.039062 10.765625 -7.296875 10.765625 -8.703125 Z M 10.765625 -8.703125 "/></g></g><g style="fill:#373434;fill-opacity:1;"><g transform="translate(354.83958, 801.720585)"><path style="stroke:none" d="M 7.828125 -13.640625 C 9.410156 -13.640625 10.554688 -12.863281 11.265625 -11.3125 L 11.390625 -11.3125 C 11.523438 -12.582031 11.707031 -13.703125 11.9375 -14.671875 L 12.890625 -19.046875 L 14.921875 -19.046875 L 10.890625 0 L 9.1875 0 L 9.453125 -2.5625 L 9.359375 -2.5625 C 8.535156 -1.539062 7.765625 -0.816406 7.046875 -0.390625 C 6.328125 0.0351562 5.582031 0.25 4.8125 0.25 C 3.675781 0.25 2.789062 -0.148438 2.15625 -0.953125 C 1.519531 -1.753906 1.203125 -2.863281 1.203125 -4.28125 C 1.203125 -6.03125 1.492188 -7.628906 2.078125 -9.078125 C 2.671875 -10.535156 3.46875 -11.660156 4.46875 -12.453125 C 5.46875 -13.242188 6.585938 -13.640625 7.828125 -13.640625 Z M 5.5 -1.453125 C 6.269531 -1.453125 7.0625 -1.832031 7.875 -2.59375 C 8.6875 -3.363281 9.332031 -4.34375 9.8125 -5.53125 C 10.289062 -6.71875 10.53125 -7.925781 10.53125 -9.15625 C 10.53125 -10.0625 10.304688 -10.75 9.859375 -11.21875 C 9.421875 -11.695312 8.785156 -11.9375 7.953125 -11.9375 C 7.117188 -11.9375 6.347656 -11.597656 5.640625 -10.921875 C 4.941406 -10.253906 4.378906 -9.304688 3.953125 -8.078125 C 3.523438 -6.859375 3.3125 -5.578125 3.3125 -4.234375 C 3.3125 -2.378906 4.039062 -1.453125 5.5 -1.453125 Z M 5.5 -1.453125 "/></g></g><g style="fill:#373434;fill-opacity:1;"><g transform="translate(375.588793, 801.720585)"><path style="stroke:none" d="M 6.03125 0.25 C 4.519531 0.25 3.335938 -0.191406 2.484375 -1.078125 C 1.628906 -1.972656 1.203125 -3.207031 1.203125 -4.78125 C 1.203125 -6.320312 1.503906 -7.796875 2.109375 -9.203125 C 2.722656 -10.609375 3.53125 -11.703125 4.53125 -12.484375 C 5.53125 -13.273438 6.632812 -13.671875 7.84375 -13.671875 C 9.09375 -13.671875 10.03125 -13.394531 10.65625 -12.84375 C 11.289062 -12.300781 11.609375 -11.546875 11.609375 -10.578125 C 11.609375 -9.109375 10.929688 -7.953125 9.578125 -7.109375 C 8.222656 -6.273438 6.285156 -5.859375 3.765625 -5.859375 L 3.359375 -5.859375 L 3.3125 -4.890625 C 3.3125 -3.816406 3.5625 -2.976562 4.0625 -2.375 C 4.5625 -1.78125 5.335938 -1.484375 6.390625 -1.484375 C 6.898438 -1.484375 7.425781 -1.554688 7.96875 -1.703125 C 8.519531 -1.847656 9.195312 -2.117188 10 -2.515625 L 10 -0.71875 C 9.238281 -0.363281 8.5625 -0.113281 7.96875 0.03125 C 7.382812 0.175781 6.738281 0.25 6.03125 0.25 Z M 7.734375 -11.921875 C 6.890625 -11.921875 6.097656 -11.535156 5.359375 -10.765625 C 4.617188 -9.992188 4.050781 -8.925781 3.65625 -7.5625 L 3.8125 -7.5625 C 5.664062 -7.5625 7.085938 -7.804688 8.078125 -8.296875 C 9.078125 -8.785156 9.578125 -9.488281 9.578125 -10.40625 C 9.578125 -10.84375 9.425781 -11.203125 9.125 -11.484375 C 8.832031 -11.773438 8.367188 -11.921875 7.734375 -11.921875 Z M 7.734375 -11.921875 "/></g></g><g style="fill:#373434;fill-opacity:1;"><g transform="translate(394.231238, 801.720585)"><path style="stroke:none" d=""/></g></g><g style="fill:#373434;fill-opacity:1;"><g transform="translate(407.018828, 801.720585)"><path style="stroke:none" d="M 7.828125 -13.671875 C 8.578125 -13.671875 9.242188 -13.46875 9.828125 -13.0625 C 10.421875 -12.65625 10.878906 -12.070312 11.203125 -11.3125 L 11.34375 -11.3125 L 12.15625 -13.421875 L 13.71875 -13.421875 L 10.859375 0 L 9.234375 0 L 9.546875 -2.5625 L 9.453125 -2.5625 C 7.992188 -0.6875 6.457031 0.25 4.84375 0.25 C 3.707031 0.25 2.816406 -0.148438 2.171875 -0.953125 C 1.523438 -1.765625 1.203125 -2.875 1.203125 -4.28125 C 1.203125 -5.976562 1.488281 -7.550781 2.0625 -9 C 2.644531 -10.457031 3.445312 -11.597656 4.46875 -12.421875 C 5.488281 -13.253906 6.609375 -13.671875 7.828125 -13.671875 Z M 5.5 -1.453125 C 6.289062 -1.453125 7.078125 -1.828125 7.859375 -2.578125 C 8.640625 -3.335938 9.273438 -4.320312 9.765625 -5.53125 C 10.253906 -6.75 10.5 -7.96875 10.5 -9.1875 C 10.5 -10.019531 10.269531 -10.6875 9.8125 -11.1875 C 9.363281 -11.6875 8.765625 -11.9375 8.015625 -11.9375 C 7.171875 -11.9375 6.382812 -11.582031 5.65625 -10.875 C 4.925781 -10.175781 4.351562 -9.226562 3.9375 -8.03125 C 3.519531 -6.832031 3.3125 -5.566406 3.3125 -4.234375 C 3.3125 -3.304688 3.5 -2.609375 3.875 -2.140625 C 4.257812 -1.679688 4.800781 -1.453125 5.5 -1.453125 Z M 5.5 -1.453125 "/></g></g><g style="fill:#373434;fill-opacity:1;"><g transform="translate(427.461824, 801.720585)"><path style="stroke:none" d="M 8.921875 0 L 10.734375 -8.46875 C 10.898438 -9.320312 10.984375 -9.910156 10.984375 -10.234375 C 10.984375 -10.753906 10.835938 -11.164062 10.546875 -11.46875 C 10.253906 -11.78125 9.789062 -11.9375 9.15625 -11.9375 C 8.425781 -11.9375 7.71875 -11.691406 7.03125 -11.203125 C 6.34375 -10.710938 5.734375 -10.015625 5.203125 -9.109375 C 4.679688 -8.203125 4.285156 -7.101562 4.015625 -5.8125 L 2.78125 0 L 0.71875 0 L 3.59375 -13.421875 L 5.296875 -13.421875 L 5.015625 -10.9375 L 5.140625 -10.9375 C 5.921875 -11.925781 6.675781 -12.628906 7.40625 -13.046875 C 8.144531 -13.460938 8.90625 -13.671875 9.6875 -13.671875 C 10.71875 -13.671875 11.535156 -13.382812 12.140625 -12.8125 C 12.742188 -12.25 13.046875 -11.457031 13.046875 -10.4375 C 13.046875 -9.789062 12.953125 -9.054688 12.765625 -8.234375 L 11.015625 0 Z M 8.921875 0 "/></g></g><g style="fill:#373434;fill-opacity:1;"><g transform="translate(448.211037, 801.720585)"><path style="stroke:none" d="M 7.828125 -13.640625 C 9.410156 -13.640625 10.554688 -12.863281 11.265625 -11.3125 L 11.390625 -11.3125 C 11.523438 -12.582031 11.707031 -13.703125 11.9375 -14.671875 L 12.890625 -19.046875 L 14.921875 -19.046875 L 10.890625 0 L 9.1875 0 L 9.453125 -2.5625 L 9.359375 -2.5625 C 8.535156 -1.539062 7.765625 -0.816406 7.046875 -0.390625 C 6.328125 0.0351562 5.582031 0.25 4.8125 0.25 C 3.675781 0.25 2.789062 -0.148438 2.15625 -0.953125 C 1.519531 -1.753906 1.203125 -2.863281 1.203125 -4.28125 C 1.203125 -6.03125 1.492188 -7.628906 2.078125 -9.078125 C 2.671875 -10.535156 3.46875 -11.660156 4.46875 -12.453125 C 5.46875 -13.242188 6.585938 -13.640625 7.828125 -13.640625 Z M 5.5 -1.453125 C 6.269531 -1.453125 7.0625 -1.832031 7.875 -2.59375 C 8.6875 -3.363281 9.332031 -4.34375 9.8125 -5.53125 C 10.289062 -6.71875 10.53125 -7.925781 10.53125 -9.15625 C 10.53125 -10.0625 10.304688 -10.75 9.859375 -11.21875 C 9.421875 -11.695312 8.785156 -11.9375 7.953125 -11.9375 C 7.117188 -11.9375 6.347656 -11.597656 5.640625 -10.921875 C 4.941406 -10.253906 4.378906 -9.304688 3.953125 -8.078125 C 3.523438 -6.859375 3.3125 -5.578125 3.3125 -4.234375 C 3.3125 -2.378906 4.039062 -1.453125 5.5 -1.453125 Z M 5.5 -1.453125 "/></g></g><g style="fill:#373434;fill-opacity:1;"><g transform="translate(468.96025, 801.720585)"><path style="stroke:none" d=""/></g></g><g style="fill:#373434;fill-opacity:1;"><g transform="translate(481.74784, 801.720585)"><path style="stroke:none" d="M 5.515625 -13.421875 L 3.6875 -4.90625 C 3.539062 -4.1875 3.46875 -3.617188 3.46875 -3.203125 C 3.46875 -2.035156 4.066406 -1.453125 5.265625 -1.453125 C 5.984375 -1.453125 6.6875 -1.695312 7.375 -2.1875 C 8.070312 -2.675781 8.6875 -3.378906 9.21875 -4.296875 C 9.75 -5.210938 10.15625 -6.316406 10.4375 -7.609375 L 11.65625 -13.421875 L 13.6875 -13.421875 L 10.859375 0 L 9.15625 0 L 9.421875 -2.484375 L 9.28125 -2.484375 C 8.476562 -1.460938 7.710938 -0.75 6.984375 -0.34375 C 6.265625 0.0507812 5.515625 0.25 4.734375 0.25 C 3.691406 0.25 2.875 -0.03125 2.28125 -0.59375 C 1.6875 -1.164062 1.390625 -1.976562 1.390625 -3.03125 C 1.390625 -3.539062 1.476562 -4.242188 1.65625 -5.140625 L 3.4375 -13.421875 Z M 5.515625 -13.421875 "/></g></g><g style="fill:#373434;fill-opacity:1;"><g transform="translate(502.497053, 801.720585)"><path style="stroke:none" d="M 6.671875 0.25 C 5.878906 0.25 5.1875 0.046875 4.59375 -0.359375 C 4 -0.773438 3.535156 -1.347656 3.203125 -2.078125 L 3.078125 -2.078125 L 3.03125 -1.609375 C 3.007812 -1.410156 2.96875 -1.125 2.90625 -0.75 C 2.84375 -0.382812 2.375 1.875 1.5 6.03125 L -0.53125 6.03125 L 3.59375 -13.421875 L 5.296875 -13.421875 L 4.96875 -10.859375 L 5.0625 -10.859375 C 6.53125 -12.710938 8.050781 -13.640625 9.625 -13.640625 C 10.738281 -13.640625 11.617188 -13.238281 12.265625 -12.4375 C 12.910156 -11.644531 13.234375 -10.53125 13.234375 -9.09375 C 13.234375 -7.363281 12.953125 -5.773438 12.390625 -4.328125 C 11.828125 -2.890625 11.046875 -1.765625 10.046875 -0.953125 C 9.054688 -0.148438 7.929688 0.25 6.671875 0.25 Z M 8.953125 -11.9375 C 8.171875 -11.9375 7.375 -11.546875 6.5625 -10.765625 C 5.75 -9.992188 5.101562 -9.019531 4.625 -7.84375 C 4.144531 -6.664062 3.90625 -5.460938 3.90625 -4.234375 C 3.90625 -3.335938 4.128906 -2.648438 4.578125 -2.171875 C 5.035156 -1.691406 5.691406 -1.453125 6.546875 -1.453125 C 7.359375 -1.453125 8.113281 -1.78125 8.8125 -2.4375 C 9.507812 -3.101562 10.066406 -4.046875 10.484375 -5.265625 C 10.910156 -6.492188 11.125 -7.789062 11.125 -9.15625 C 11.125 -11.007812 10.398438 -11.9375 8.953125 -11.9375 Z M 8.953125 -11.9375 "/></g></g><g style="fill:#373434;fill-opacity:1;"><g transform="translate(523.246266, 801.720585)"><path style="stroke:none" d="M 2.75 0 L 0.703125 0 L 4.765625 -19.046875 L 6.828125 -19.046875 Z M 2.75 0 "/></g></g><g style="fill:#373434;fill-opacity:1;"><g transform="translate(535.886872, 801.720585)"><path style="stroke:none" d="M 7.875 -13.59375 C 9.425781 -13.59375 10.648438 -13.132812 11.546875 -12.21875 C 12.441406 -11.300781 12.890625 -10.035156 12.890625 -8.421875 C 12.890625 -6.890625 12.59375 -5.441406 12 -4.078125 C 11.414062 -2.710938 10.625 -1.65625 9.625 -0.90625 C 8.625 -0.164062 7.488281 0.203125 6.21875 0.203125 C 4.65625 0.203125 3.425781 -0.257812 2.53125 -1.1875 C 1.644531 -2.113281 1.203125 -3.375 1.203125 -4.96875 C 1.203125 -6.519531 1.5 -7.976562 2.09375 -9.34375 C 2.6875 -10.71875 3.488281 -11.769531 4.5 -12.5 C 5.519531 -13.226562 6.644531 -13.59375 7.875 -13.59375 Z M 10.765625 -8.703125 C 10.765625 -9.640625 10.507812 -10.398438 10 -10.984375 C 9.488281 -11.566406 8.796875 -11.859375 7.921875 -11.859375 C 7.035156 -11.859375 6.238281 -11.554688 5.53125 -10.953125 C 4.820312 -10.347656 4.273438 -9.507812 3.890625 -8.4375 C 3.503906 -7.363281 3.3125 -6.171875 3.3125 -4.859375 C 3.3125 -3.785156 3.566406 -2.957031 4.078125 -2.375 C 4.597656 -1.789062 5.34375 -1.5 6.3125 -1.5 C 7.164062 -1.5 7.929688 -1.796875 8.609375 -2.390625 C 9.285156 -2.992188 9.8125 -3.84375 10.1875 -4.9375 C 10.570312 -6.039062 10.765625 -7.296875 10.765625 -8.703125 Z M 10.765625 -8.703125 "/></g></g><g style="fill:#373434;fill-opacity:1;"><g transform="translate(556.23188, 801.720585)"><path style="stroke:none" d="M 7.828125 -13.671875 C 8.578125 -13.671875 9.242188 -13.46875 9.828125 -13.0625 C 10.421875 -12.65625 10.878906 -12.070312 11.203125 -11.3125 L 11.34375 -11.3125 L 12.15625 -13.421875 L 13.71875 -13.421875 L 10.859375 0 L 9.234375 0 L 9.546875 -2.5625 L 9.453125 -2.5625 C 7.992188 -0.6875 6.457031 0.25 4.84375 0.25 C 3.707031 0.25 2.816406 -0.148438 2.171875 -0.953125 C 1.523438 -1.765625 1.203125 -2.875 1.203125 -4.28125 C 1.203125 -5.976562 1.488281 -7.550781 2.0625 -9 C 2.644531 -10.457031 3.445312 -11.597656 4.46875 -12.421875 C 5.488281 -13.253906 6.609375 -13.671875 7.828125 -13.671875 Z M 5.5 -1.453125 C 6.289062 -1.453125 7.078125 -1.828125 7.859375 -2.578125 C 8.640625 -3.335938 9.273438 -4.320312 9.765625 -5.53125 C 10.253906 -6.75 10.5 -7.96875 10.5 -9.1875 C 10.5 -10.019531 10.269531 -10.6875 9.8125 -11.1875 C 9.363281 -11.6875 8.765625 -11.9375 8.015625 -11.9375 C 7.171875 -11.9375 6.382812 -11.582031 5.65625 -10.875 C 4.925781 -10.175781 4.351562 -9.226562 3.9375 -8.03125 C 3.519531 -6.832031 3.3125 -5.566406 3.3125 -4.234375 C 3.3125 -3.304688 3.5 -2.609375 3.875 -2.140625 C 4.257812 -1.679688 4.800781 -1.453125 5.5 -1.453125 Z M 5.5 -1.453125 "/></g></g><g style="fill:#373434;fill-opacity:1;"><g transform="translate(576.674876, 801.720585)"><path style="stroke:none" d="M 7.828125 -13.640625 C 9.410156 -13.640625 10.554688 -12.863281 11.265625 -11.3125 L 11.390625 -11.3125 C 11.523438 -12.582031 11.707031 -13.703125 11.9375 -14.671875 L 12.890625 -19.046875 L 14.921875 -19.046875 L 10.890625 0 L 9.1875 0 L 9.453125 -2.5625 L 9.359375 -2.5625 C 8.535156 -1.539062 7.765625 -0.816406 7.046875 -0.390625 C 6.328125 0.0351562 5.582031 0.25 4.8125 0.25 C 3.675781 0.25 2.789062 -0.148438 2.15625 -0.953125 C 1.519531 -1.753906 1.203125 -2.863281 1.203125 -4.28125 C 1.203125 -6.03125 1.492188 -7.628906 2.078125 -9.078125 C 2.671875 -10.535156 3.46875 -11.660156 4.46875 -12.453125 C 5.46875 -13.242188 6.585938 -13.640625 7.828125 -13.640625 Z M 5.5 -1.453125 C 6.269531 -1.453125 7.0625 -1.832031 7.875 -2.59375 C 8.6875 -3.363281 9.332031 -4.34375 9.8125 -5.53125 C 10.289062 -6.71875 10.53125 -7.925781 10.53125 -9.15625 C 10.53125 -10.0625 10.304688 -10.75 9.859375 -11.21875 C 9.421875 -11.695312 8.785156 -11.9375 7.953125 -11.9375 C 7.117188 -11.9375 6.347656 -11.597656 5.640625 -10.921875 C 4.941406 -10.253906 4.378906 -9.304688 3.953125 -8.078125 C 3.523438 -6.859375 3.3125 -5.578125 3.3125 -4.234375 C 3.3125 -2.378906 4.039062 -1.453125 5.5 -1.453125 Z M 5.5 -1.453125 "/></g></g><g style="fill:#373434;fill-opacity:1;"><g transform="translate(597.424089, 801.720585)"><path style="stroke:none" d=""/></g></g><g style="fill:#373434;fill-opacity:1;"><g transform="translate(610.211679, 801.720585)"><path style="stroke:none" d="M 1.203125 -13.421875 L 3.25 -13.421875 L 4.15625 -6.75 C 4.238281 -6.1875 4.316406 -5.351562 4.390625 -4.25 C 4.472656 -3.15625 4.515625 -2.273438 4.515625 -1.609375 L 4.59375 -1.609375 C 4.875 -2.316406 5.226562 -3.128906 5.65625 -4.046875 C 6.082031 -4.972656 6.394531 -5.613281 6.59375 -5.96875 L 10.578125 -13.421875 L 12.765625 -13.421875 L 4.234375 2.28125 C 3.472656 3.6875 2.722656 4.660156 1.984375 5.203125 C 1.242188 5.753906 0.347656 6.03125 -0.703125 6.03125 C -1.285156 6.03125 -1.851562 5.941406 -2.40625 5.765625 L -2.40625 4.109375 C -1.894531 4.253906 -1.363281 4.328125 -0.8125 4.328125 C -0.132812 4.328125 0.4375 4.117188 0.90625 3.703125 C 1.382812 3.296875 1.847656 2.691406 2.296875 1.890625 L 3.234375 0.21875 Z M 1.203125 -13.421875 "/></g></g><g style="fill:#373434;fill-opacity:1;"><g transform="translate(628.07021, 801.720585)"><path style="stroke:none" d="M 7.875 -13.59375 C 9.425781 -13.59375 10.648438 -13.132812 11.546875 -12.21875 C 12.441406 -11.300781 12.890625 -10.035156 12.890625 -8.421875 C 12.890625 -6.890625 12.59375 -5.441406 12 -4.078125 C 11.414062 -2.710938 10.625 -1.65625 9.625 -0.90625 C 8.625 -0.164062 7.488281 0.203125 6.21875 0.203125 C 4.65625 0.203125 3.425781 -0.257812 2.53125 -1.1875 C 1.644531 -2.113281 1.203125 -3.375 1.203125 -4.96875 C 1.203125 -6.519531 1.5 -7.976562 2.09375 -9.34375 C 2.6875 -10.71875 3.488281 -11.769531 4.5 -12.5 C 5.519531 -13.226562 6.644531 -13.59375 7.875 -13.59375 Z M 10.765625 -8.703125 C 10.765625 -9.640625 10.507812 -10.398438 10 -10.984375 C 9.488281 -11.566406 8.796875 -11.859375 7.921875 -11.859375 C 7.035156 -11.859375 6.238281 -11.554688 5.53125 -10.953125 C 4.820312 -10.347656 4.273438 -9.507812 3.890625 -8.4375 C 3.503906 -7.363281 3.3125 -6.171875 3.3125 -4.859375 C 3.3125 -3.785156 3.566406 -2.957031 4.078125 -2.375 C 4.597656 -1.789062 5.34375 -1.5 6.3125 -1.5 C 7.164062 -1.5 7.929688 -1.796875 8.609375 -2.390625 C 9.285156 -2.992188 9.8125 -3.84375 10.1875 -4.9375 C 10.570312 -6.039062 10.765625 -7.296875 10.765625 -8.703125 Z M 10.765625 -8.703125 "/></g></g><g style="fill:#373434;fill-opacity:1;"><g transform="translate(648.415218, 801.720585)"><path style="stroke:none" d="M 5.515625 -13.421875 L 3.6875 -4.90625 C 3.539062 -4.1875 3.46875 -3.617188 3.46875 -3.203125 C 3.46875 -2.035156 4.066406 -1.453125 5.265625 -1.453125 C 5.984375 -1.453125 6.6875 -1.695312 7.375 -2.1875 C 8.070312 -2.675781 8.6875 -3.378906 9.21875 -4.296875 C 9.75 -5.210938 10.15625 -6.316406 10.4375 -7.609375 L 11.65625 -13.421875 L 13.6875 -13.421875 L 10.859375 0 L 9.15625 0 L 9.421875 -2.484375 L 9.28125 -2.484375 C 8.476562 -1.460938 7.710938 -0.75 6.984375 -0.34375 C 6.265625 0.0507812 5.515625 0.25 4.734375 0.25 C 3.691406 0.25 2.875 -0.03125 2.28125 -0.59375 C 1.6875 -1.164062 1.390625 -1.976562 1.390625 -3.03125 C 1.390625 -3.539062 1.476562 -4.242188 1.65625 -5.140625 L 3.4375 -13.421875 Z M 5.515625 -13.421875 "/></g></g><g style="fill:#373434;fill-opacity:1;"><g transform="translate(669.16443, 801.720585)"><path style="stroke:none" d="M 9.203125 -13.671875 C 9.765625 -13.671875 10.253906 -13.613281 10.671875 -13.5 L 10.234375 -11.65625 C 9.804688 -11.757812 9.378906 -11.8125 8.953125 -11.8125 C 8.210938 -11.8125 7.515625 -11.566406 6.859375 -11.078125 C 6.210938 -10.585938 5.644531 -9.90625 5.15625 -9.03125 C 4.675781 -8.164062 4.320312 -7.203125 4.09375 -6.140625 L 2.78125 0 L 0.71875 0 L 3.59375 -13.421875 L 5.296875 -13.421875 L 5.015625 -10.9375 L 5.140625 -10.9375 C 5.734375 -11.707031 6.21875 -12.257812 6.59375 -12.59375 C 6.976562 -12.9375 7.378906 -13.203125 7.796875 -13.390625 C 8.222656 -13.578125 8.691406 -13.671875 9.203125 -13.671875 Z M 9.203125 -13.671875 "/></g></g><g style="fill:#373434;fill-opacity:1;"><g transform="translate(685.377558, 801.720585)"><path style="stroke:none" d=""/></g></g><g style="fill:#373434;fill-opacity:1;"><g transform="translate(173.220684, 835.167565)"><path style="stroke:none" d="M 6.671875 0.25 C 5.878906 0.25 5.1875 0.046875 4.59375 -0.359375 C 4 -0.773438 3.535156 -1.347656 3.203125 -2.078125 L 3.078125 -2.078125 L 3.03125 -1.609375 C 3.007812 -1.410156 2.96875 -1.125 2.90625 -0.75 C 2.84375 -0.382812 2.375 1.875 1.5 6.03125 L -0.53125 6.03125 L 3.59375 -13.421875 L 5.296875 -13.421875 L 4.96875 -10.859375 L 5.0625 -10.859375 C 6.53125 -12.710938 8.050781 -13.640625 9.625 -13.640625 C 10.738281 -13.640625 11.617188 -13.238281 12.265625 -12.4375 C 12.910156 -11.644531 13.234375 -10.53125 13.234375 -9.09375 C 13.234375 -7.363281 12.953125 -5.773438 12.390625 -4.328125 C 11.828125 -2.890625 11.046875 -1.765625 10.046875 -0.953125 C 9.054688 -0.148438 7.929688 0.25 6.671875 0.25 Z M 8.953125 -11.9375 C 8.171875 -11.9375 7.375 -11.546875 6.5625 -10.765625 C 5.75 -9.992188 5.101562 -9.019531 4.625 -7.84375 C 4.144531 -6.664062 3.90625 -5.460938 3.90625 -4.234375 C 3.90625 -3.335938 4.128906 -2.648438 4.578125 -2.171875 C 5.035156 -1.691406 5.691406 -1.453125 6.546875 -1.453125 C 7.359375 -1.453125 8.113281 -1.78125 8.8125 -2.4375 C 9.507812 -3.101562 10.066406 -4.046875 10.484375 -5.265625 C 10.910156 -6.492188 11.125 -7.789062 11.125 -9.15625 C 11.125 -11.007812 10.398438 -11.9375 8.953125 -11.9375 Z M 8.953125 -11.9375 "/></g></g><g style="fill:#373434;fill-opacity:1;"><g transform="translate(193.969897, 835.167565)"><path style="stroke:none" d="M 8.921875 0 L 10.734375 -8.46875 C 10.878906 -9.238281 10.953125 -9.789062 10.953125 -10.125 C 10.953125 -11.332031 10.351562 -11.9375 9.15625 -11.9375 C 8.425781 -11.9375 7.71875 -11.695312 7.03125 -11.21875 C 6.34375 -10.738281 5.734375 -10.035156 5.203125 -9.109375 C 4.679688 -8.191406 4.285156 -7.085938 4.015625 -5.796875 L 2.78125 0 L 0.71875 0 L 4.765625 -19.046875 L 6.828125 -19.046875 C 6.671875 -18.378906 6.523438 -17.726562 6.390625 -17.09375 C 6.265625 -16.46875 6.128906 -15.832031 5.984375 -15.1875 C 5.835938 -14.539062 5.679688 -13.863281 5.515625 -13.15625 C 5.347656 -12.445312 5.15625 -11.675781 4.9375 -10.84375 L 5.0625 -10.84375 C 5.832031 -11.84375 6.59375 -12.554688 7.34375 -12.984375 C 8.09375 -13.421875 8.875 -13.640625 9.6875 -13.640625 C 10.757812 -13.640625 11.585938 -13.34375 12.171875 -12.75 C 12.753906 -12.164062 13.046875 -11.335938 13.046875 -10.265625 C 13.046875 -9.753906 12.953125 -9.078125 12.765625 -8.234375 C 12.441406 -6.648438 11.847656 -3.90625 10.984375 0 Z M 8.921875 0 "/></g></g><g style="fill:#373434;fill-opacity:1;"><g transform="translate(214.719109, 835.167565)"><path style="stroke:none" d="M 7.875 -13.59375 C 9.425781 -13.59375 10.648438 -13.132812 11.546875 -12.21875 C 12.441406 -11.300781 12.890625 -10.035156 12.890625 -8.421875 C 12.890625 -6.890625 12.59375 -5.441406 12 -4.078125 C 11.414062 -2.710938 10.625 -1.65625 9.625 -0.90625 C 8.625 -0.164062 7.488281 0.203125 6.21875 0.203125 C 4.65625 0.203125 3.425781 -0.257812 2.53125 -1.1875 C 1.644531 -2.113281 1.203125 -3.375 1.203125 -4.96875 C 1.203125 -6.519531 1.5 -7.976562 2.09375 -9.34375 C 2.6875 -10.71875 3.488281 -11.769531 4.5 -12.5 C 5.519531 -13.226562 6.644531 -13.59375 7.875 -13.59375 Z M 10.765625 -8.703125 C 10.765625 -9.640625 10.507812 -10.398438 10 -10.984375 C 9.488281 -11.566406 8.796875 -11.859375 7.921875 -11.859375 C 7.035156 -11.859375 6.238281 -11.554688 5.53125 -10.953125 C 4.820312 -10.347656 4.273438 -9.507812 3.890625 -8.4375 C 3.503906 -7.363281 3.3125 -6.171875 3.3125 -4.859375 C 3.3125 -3.785156 3.566406 -2.957031 4.078125 -2.375 C 4.597656 -1.789062 5.34375 -1.5 6.3125 -1.5 C 7.164062 -1.5 7.929688 -1.796875 8.609375 -2.390625 C 9.285156 -2.992188 9.8125 -3.84375 10.1875 -4.9375 C 10.570312 -6.039062 10.765625 -7.296875 10.765625 -8.703125 Z M 10.765625 -8.703125 "/></g></g><g style="fill:#373434;fill-opacity:1;"><g transform="translate(235.064117, 835.167565)"><path style="stroke:none" d="M 4.84375 -1.4375 C 5.289062 -1.4375 5.875 -1.539062 6.59375 -1.75 L 6.59375 -0.171875 C 6.320312 -0.0546875 5.976562 0.0390625 5.5625 0.125 C 5.15625 0.207031 4.832031 0.25 4.59375 0.25 C 3.570312 0.25 2.789062 0.00390625 2.25 -0.484375 C 1.707031 -0.972656 1.4375 -1.695312 1.4375 -2.65625 C 1.4375 -3.195312 1.507812 -3.8125 1.65625 -4.5 L 3.203125 -11.859375 L 1.109375 -11.859375 L 1.28125 -12.765625 L 3.53125 -13.71875 L 5.0625 -16.5 L 6.265625 -16.5 L 5.59375 -13.421875 L 8.953125 -13.421875 L 8.640625 -11.859375 L 5.296875 -11.859375 L 3.703125 -4.46875 C 3.554688 -3.757812 3.484375 -3.222656 3.484375 -2.859375 C 3.484375 -2.398438 3.601562 -2.046875 3.84375 -1.796875 C 4.082031 -1.554688 4.414062 -1.4375 4.84375 -1.4375 Z M 4.84375 -1.4375 "/></g></g><g style="fill:#373434;fill-opacity:1;"><g transform="translate(249.468529, 835.167565)"><path style="stroke:none" d="M 7.875 -13.59375 C 9.425781 -13.59375 10.648438 -13.132812 11.546875 -12.21875 C 12.441406 -11.300781 12.890625 -10.035156 12.890625 -8.421875 C 12.890625 -6.890625 12.59375 -5.441406 12 -4.078125 C 11.414062 -2.710938 10.625 -1.65625 9.625 -0.90625 C 8.625 -0.164062 7.488281 0.203125 6.21875 0.203125 C 4.65625 0.203125 3.425781 -0.257812 2.53125 -1.1875 C 1.644531 -2.113281 1.203125 -3.375 1.203125 -4.96875 C 1.203125 -6.519531 1.5 -7.976562 2.09375 -9.34375 C 2.6875 -10.71875 3.488281 -11.769531 4.5 -12.5 C 5.519531 -13.226562 6.644531 -13.59375 7.875 -13.59375 Z M 10.765625 -8.703125 C 10.765625 -9.640625 10.507812 -10.398438 10 -10.984375 C 9.488281 -11.566406 8.796875 -11.859375 7.921875 -11.859375 C 7.035156 -11.859375 6.238281 -11.554688 5.53125 -10.953125 C 4.820312 -10.347656 4.273438 -9.507812 3.890625 -8.4375 C 3.503906 -7.363281 3.3125 -6.171875 3.3125 -4.859375 C 3.3125 -3.785156 3.566406 -2.957031 4.078125 -2.375 C 4.597656 -1.789062 5.34375 -1.5 6.3125 -1.5 C 7.164062 -1.5 7.929688 -1.796875 8.609375 -2.390625 C 9.285156 -2.992188 9.8125 -3.84375 10.1875 -4.9375 C 10.570312 -6.039062 10.765625 -7.296875 10.765625 -8.703125 Z M 10.765625 -8.703125 "/></g></g><g style="fill:#373434;fill-opacity:1;"><g transform="translate(269.813536, 835.167565)"><path style="stroke:none" d="M 9 -3.8125 C 9 -2.53125 8.546875 -1.53125 7.640625 -0.8125 C 6.742188 -0.101562 5.472656 0.25 3.828125 0.25 C 2.453125 0.25 1.207031 -0.03125 0.09375 -0.59375 L 0.09375 -2.53125 C 0.664062 -2.1875 1.28125 -1.921875 1.9375 -1.734375 C 2.601562 -1.546875 3.21875 -1.453125 3.78125 -1.453125 C 4.8125 -1.453125 5.585938 -1.65625 6.109375 -2.0625 C 6.628906 -2.476562 6.890625 -3.003906 6.890625 -3.640625 C 6.890625 -4.097656 6.742188 -4.488281 6.453125 -4.8125 C 6.171875 -5.132812 5.554688 -5.570312 4.609375 -6.125 C 3.554688 -6.71875 2.804688 -7.300781 2.359375 -7.875 C 1.921875 -8.445312 1.703125 -9.125 1.703125 -9.90625 C 1.703125 -11.03125 2.113281 -11.9375 2.9375 -12.625 C 3.757812 -13.320312 4.847656 -13.671875 6.203125 -13.671875 C 7.597656 -13.671875 8.941406 -13.367188 10.234375 -12.765625 L 9.578125 -11.078125 L 8.890625 -11.390625 C 8.066406 -11.742188 7.171875 -11.921875 6.203125 -11.921875 C 5.441406 -11.921875 4.84375 -11.738281 4.40625 -11.375 C 3.976562 -11.019531 3.765625 -10.5625 3.765625 -10 C 3.765625 -9.539062 3.90625 -9.148438 4.1875 -8.828125 C 4.476562 -8.503906 5.078125 -8.082031 5.984375 -7.5625 C 6.859375 -7.070312 7.484375 -6.648438 7.859375 -6.296875 C 8.242188 -5.953125 8.53125 -5.578125 8.71875 -5.171875 C 8.90625 -4.765625 9 -4.3125 9 -3.8125 Z M 9 -3.8125 "/></g></g><g style="fill:#373434;fill-opacity:1;"><g transform="translate(286.826911, 835.167565)"><path style="stroke:none" d=""/></g></g><g style="fill:#373434;fill-opacity:1;"><g transform="translate(299.614501, 835.167565)"><path style="stroke:none" d="M 4.84375 -1.4375 C 5.289062 -1.4375 5.875 -1.539062 6.59375 -1.75 L 6.59375 -0.171875 C 6.320312 -0.0546875 5.976562 0.0390625 5.5625 0.125 C 5.15625 0.207031 4.832031 0.25 4.59375 0.25 C 3.570312 0.25 2.789062 0.00390625 2.25 -0.484375 C 1.707031 -0.972656 1.4375 -1.695312 1.4375 -2.65625 C 1.4375 -3.195312 1.507812 -3.8125 1.65625 -4.5 L 3.203125 -11.859375 L 1.109375 -11.859375 L 1.28125 -12.765625 L 3.53125 -13.71875 L 5.0625 -16.5 L 6.265625 -16.5 L 5.59375 -13.421875 L 8.953125 -13.421875 L 8.640625 -11.859375 L 5.296875 -11.859375 L 3.703125 -4.46875 C 3.554688 -3.757812 3.484375 -3.222656 3.484375 -2.859375 C 3.484375 -2.398438 3.601562 -2.046875 3.84375 -1.796875 C 4.082031 -1.554688 4.414062 -1.4375 4.84375 -1.4375 Z M 4.84375 -1.4375 "/></g></g><g style="fill:#373434;fill-opacity:1;"><g transform="translate(314.018913, 835.167565)"><path style="stroke:none" d="M 7.875 -13.59375 C 9.425781 -13.59375 10.648438 -13.132812 11.546875 -12.21875 C 12.441406 -11.300781 12.890625 -10.035156 12.890625 -8.421875 C 12.890625 -6.890625 12.59375 -5.441406 12 -4.078125 C 11.414062 -2.710938 10.625 -1.65625 9.625 -0.90625 C 8.625 -0.164062 7.488281 0.203125 6.21875 0.203125 C 4.65625 0.203125 3.425781 -0.257812 2.53125 -1.1875 C 1.644531 -2.113281 1.203125 -3.375 1.203125 -4.96875 C 1.203125 -6.519531 1.5 -7.976562 2.09375 -9.34375 C 2.6875 -10.71875 3.488281 -11.769531 4.5 -12.5 C 5.519531 -13.226562 6.644531 -13.59375 7.875 -13.59375 Z M 10.765625 -8.703125 C 10.765625 -9.640625 10.507812 -10.398438 10 -10.984375 C 9.488281 -11.566406 8.796875 -11.859375 7.921875 -11.859375 C 7.035156 -11.859375 6.238281 -11.554688 5.53125 -10.953125 C 4.820312 -10.347656 4.273438 -9.507812 3.890625 -8.4375 C 3.503906 -7.363281 3.3125 -6.171875 3.3125 -4.859375 C 3.3125 -3.785156 3.566406 -2.957031 4.078125 -2.375 C 4.597656 -1.789062 5.34375 -1.5 6.3125 -1.5 C 7.164062 -1.5 7.929688 -1.796875 8.609375 -2.390625 C 9.285156 -2.992188 9.8125 -3.84375 10.1875 -4.9375 C 10.570312 -6.039062 10.765625 -7.296875 10.765625 -8.703125 Z M 10.765625 -8.703125 "/></g></g><g style="fill:#373434;fill-opacity:1;"><g transform="translate(334.36392, 835.167565)"><path style="stroke:none" d=""/></g></g><g style="fill:#373434;fill-opacity:1;"><g transform="translate(347.151511, 835.167565)"><path style="stroke:none" d="M 9 -3.8125 C 9 -2.53125 8.546875 -1.53125 7.640625 -0.8125 C 6.742188 -0.101562 5.472656 0.25 3.828125 0.25 C 2.453125 0.25 1.207031 -0.03125 0.09375 -0.59375 L 0.09375 -2.53125 C 0.664062 -2.1875 1.28125 -1.921875 1.9375 -1.734375 C 2.601562 -1.546875 3.21875 -1.453125 3.78125 -1.453125 C 4.8125 -1.453125 5.585938 -1.65625 6.109375 -2.0625 C 6.628906 -2.476562 6.890625 -3.003906 6.890625 -3.640625 C 6.890625 -4.097656 6.742188 -4.488281 6.453125 -4.8125 C 6.171875 -5.132812 5.554688 -5.570312 4.609375 -6.125 C 3.554688 -6.71875 2.804688 -7.300781 2.359375 -7.875 C 1.921875 -8.445312 1.703125 -9.125 1.703125 -9.90625 C 1.703125 -11.03125 2.113281 -11.9375 2.9375 -12.625 C 3.757812 -13.320312 4.847656 -13.671875 6.203125 -13.671875 C 7.597656 -13.671875 8.941406 -13.367188 10.234375 -12.765625 L 9.578125 -11.078125 L 8.890625 -11.390625 C 8.066406 -11.742188 7.171875 -11.921875 6.203125 -11.921875 C 5.441406 -11.921875 4.84375 -11.738281 4.40625 -11.375 C 3.976562 -11.019531 3.765625 -10.5625 3.765625 -10 C 3.765625 -9.539062 3.90625 -9.148438 4.1875 -8.828125 C 4.476562 -8.503906 5.078125 -8.082031 5.984375 -7.5625 C 6.859375 -7.070312 7.484375 -6.648438 7.859375 -6.296875 C 8.242188 -5.953125 8.53125 -5.578125 8.71875 -5.171875 C 8.90625 -4.765625 9 -4.3125 9 -3.8125 Z M 9 -3.8125 "/></g></g><g style="fill:#373434;fill-opacity:1;"><g transform="translate(364.164885, 835.167565)"><path style="stroke:none" d="M 8.921875 0 L 10.734375 -8.46875 C 10.878906 -9.238281 10.953125 -9.789062 10.953125 -10.125 C 10.953125 -11.332031 10.351562 -11.9375 9.15625 -11.9375 C 8.425781 -11.9375 7.71875 -11.695312 7.03125 -11.21875 C 6.34375 -10.738281 5.734375 -10.035156 5.203125 -9.109375 C 4.679688 -8.191406 4.285156 -7.085938 4.015625 -5.796875 L 2.78125 0 L 0.71875 0 L 4.765625 -19.046875 L 6.828125 -19.046875 C 6.671875 -18.378906 6.523438 -17.726562 6.390625 -17.09375 C 6.265625 -16.46875 6.128906 -15.832031 5.984375 -15.1875 C 5.835938 -14.539062 5.679688 -13.863281 5.515625 -13.15625 C 5.347656 -12.445312 5.15625 -11.675781 4.9375 -10.84375 L 5.0625 -10.84375 C 5.832031 -11.84375 6.59375 -12.554688 7.34375 -12.984375 C 8.09375 -13.421875 8.875 -13.640625 9.6875 -13.640625 C 10.757812 -13.640625 11.585938 -13.34375 12.171875 -12.75 C 12.753906 -12.164062 13.046875 -11.335938 13.046875 -10.265625 C 13.046875 -9.753906 12.953125 -9.078125 12.765625 -8.234375 C 12.441406 -6.648438 11.847656 -3.90625 10.984375 0 Z M 8.921875 0 "/></g></g><g style="fill:#373434;fill-opacity:1;"><g transform="translate(384.914098, 835.167565)"><path style="stroke:none" d="M 7.828125 -13.671875 C 8.578125 -13.671875 9.242188 -13.46875 9.828125 -13.0625 C 10.421875 -12.65625 10.878906 -12.070312 11.203125 -11.3125 L 11.34375 -11.3125 L 12.15625 -13.421875 L 13.71875 -13.421875 L 10.859375 0 L 9.234375 0 L 9.546875 -2.5625 L 9.453125 -2.5625 C 7.992188 -0.6875 6.457031 0.25 4.84375 0.25 C 3.707031 0.25 2.816406 -0.148438 2.171875 -0.953125 C 1.523438 -1.765625 1.203125 -2.875 1.203125 -4.28125 C 1.203125 -5.976562 1.488281 -7.550781 2.0625 -9 C 2.644531 -10.457031 3.445312 -11.597656 4.46875 -12.421875 C 5.488281 -13.253906 6.609375 -13.671875 7.828125 -13.671875 Z M 5.5 -1.453125 C 6.289062 -1.453125 7.078125 -1.828125 7.859375 -2.578125 C 8.640625 -3.335938 9.273438 -4.320312 9.765625 -5.53125 C 10.253906 -6.75 10.5 -7.96875 10.5 -9.1875 C 10.5 -10.019531 10.269531 -10.6875 9.8125 -11.1875 C 9.363281 -11.6875 8.765625 -11.9375 8.015625 -11.9375 C 7.171875 -11.9375 6.382812 -11.582031 5.65625 -10.875 C 4.925781 -10.175781 4.351562 -9.226562 3.9375 -8.03125 C 3.519531 -6.832031 3.3125 -5.566406 3.3125 -4.234375 C 3.3125 -3.304688 3.5 -2.609375 3.875 -2.140625 C 4.257812 -1.679688 4.800781 -1.453125 5.5 -1.453125 Z M 5.5 -1.453125 "/></g></g><g style="fill:#373434;fill-opacity:1;"><g transform="translate(405.357094, 835.167565)"><path style="stroke:none" d="M 9.203125 -13.671875 C 9.765625 -13.671875 10.253906 -13.613281 10.671875 -13.5 L 10.234375 -11.65625 C 9.804688 -11.757812 9.378906 -11.8125 8.953125 -11.8125 C 8.210938 -11.8125 7.515625 -11.566406 6.859375 -11.078125 C 6.210938 -10.585938 5.644531 -9.90625 5.15625 -9.03125 C 4.675781 -8.164062 4.320312 -7.203125 4.09375 -6.140625 L 2.78125 0 L 0.71875 0 L 3.59375 -13.421875 L 5.296875 -13.421875 L 5.015625 -10.9375 L 5.140625 -10.9375 C 5.734375 -11.707031 6.21875 -12.257812 6.59375 -12.59375 C 6.976562 -12.9375 7.378906 -13.203125 7.796875 -13.390625 C 8.222656 -13.578125 8.691406 -13.671875 9.203125 -13.671875 Z M 9.203125 -13.671875 "/></g></g><g style="fill:#373434;fill-opacity:1;"><g transform="translate(421.562058, 835.167565)"><path style="stroke:none" d="M 6.03125 0.25 C 4.519531 0.25 3.335938 -0.191406 2.484375 -1.078125 C 1.628906 -1.972656 1.203125 -3.207031 1.203125 -4.78125 C 1.203125 -6.320312 1.503906 -7.796875 2.109375 -9.203125 C 2.722656 -10.609375 3.53125 -11.703125 4.53125 -12.484375 C 5.53125 -13.273438 6.632812 -13.671875 7.84375 -13.671875 C 9.09375 -13.671875 10.03125 -13.394531 10.65625 -12.84375 C 11.289062 -12.300781 11.609375 -11.546875 11.609375 -10.578125 C 11.609375 -9.109375 10.929688 -7.953125 9.578125 -7.109375 C 8.222656 -6.273438 6.285156 -5.859375 3.765625 -5.859375 L 3.359375 -5.859375 L 3.3125 -4.890625 C 3.3125 -3.816406 3.5625 -2.976562 4.0625 -2.375 C 4.5625 -1.78125 5.335938 -1.484375 6.390625 -1.484375 C 6.898438 -1.484375 7.425781 -1.554688 7.96875 -1.703125 C 8.519531 -1.847656 9.195312 -2.117188 10 -2.515625 L 10 -0.71875 C 9.238281 -0.363281 8.5625 -0.113281 7.96875 0.03125 C 7.382812 0.175781 6.738281 0.25 6.03125 0.25 Z M 7.734375 -11.921875 C 6.890625 -11.921875 6.097656 -11.535156 5.359375 -10.765625 C 4.617188 -9.992188 4.050781 -8.925781 3.65625 -7.5625 L 3.8125 -7.5625 C 5.664062 -7.5625 7.085938 -7.804688 8.078125 -8.296875 C 9.078125 -8.785156 9.578125 -9.488281 9.578125 -10.40625 C 9.578125 -10.84375 9.425781 -11.203125 9.125 -11.484375 C 8.832031 -11.773438 8.367188 -11.921875 7.734375 -11.921875 Z M 7.734375 -11.921875 "/></g></g><g style="fill:#373434;fill-opacity:1;"><g transform="translate(440.204503, 835.167565)"><path style="stroke:none" d=""/></g></g><g style="fill:#373434;fill-opacity:1;"><g transform="translate(452.992093, 835.167565)"><path style="stroke:none" d="M 10.171875 0 L 9.78125 -7.375 C 9.75 -8.132812 9.734375 -8.835938 9.734375 -9.484375 L 9.734375 -11.390625 L 9.625 -11.390625 L 9.015625 -9.9375 L 8 -7.625 L 4.4375 0 L 1.953125 0 L 1.4375 -13.421875 L 3.4375 -13.421875 L 3.65625 -6.140625 L 3.65625 -5.0625 C 3.65625 -3.863281 3.625 -2.769531 3.5625 -1.78125 L 3.640625 -1.78125 C 4.023438 -2.789062 4.582031 -4.101562 5.3125 -5.71875 L 8.921875 -13.421875 L 11.15625 -13.421875 L 11.609375 -6.140625 C 11.660156 -4.773438 11.6875 -3.707031 11.6875 -2.9375 L 11.6875 -2.296875 L 11.65625 -1.78125 L 11.734375 -1.78125 C 11.960938 -2.476562 12.300781 -3.367188 12.75 -4.453125 C 13.195312 -5.535156 14.515625 -8.523438 16.703125 -13.421875 L 18.875 -13.421875 L 12.6875 0 Z M 10.171875 0 "/></g></g><g style="fill:#373434;fill-opacity:1;"><g transform="translate(477.24442, 835.167565)"><path style="stroke:none" d="M 2.78125 0 L 0.71875 0 L 3.59375 -13.421875 L 5.640625 -13.421875 Z M 4.15625 -16.84375 C 4.15625 -17.300781 4.285156 -17.675781 4.546875 -17.96875 C 4.816406 -18.257812 5.160156 -18.40625 5.578125 -18.40625 C 6.296875 -18.40625 6.65625 -18.035156 6.65625 -17.296875 C 6.65625 -16.847656 6.515625 -16.46875 6.234375 -16.15625 C 5.960938 -15.851562 5.648438 -15.703125 5.296875 -15.703125 C 4.960938 -15.703125 4.6875 -15.800781 4.46875 -16 C 4.257812 -16.195312 4.15625 -16.476562 4.15625 -16.84375 Z M 4.15625 -16.84375 "/></g></g><g style="fill:#373434;fill-opacity:1;"><g transform="translate(489.885026, 835.167565)"><path style="stroke:none" d="M 4.84375 -1.4375 C 5.289062 -1.4375 5.875 -1.539062 6.59375 -1.75 L 6.59375 -0.171875 C 6.320312 -0.0546875 5.976562 0.0390625 5.5625 0.125 C 5.15625 0.207031 4.832031 0.25 4.59375 0.25 C 3.570312 0.25 2.789062 0.00390625 2.25 -0.484375 C 1.707031 -0.972656 1.4375 -1.695312 1.4375 -2.65625 C 1.4375 -3.195312 1.507812 -3.8125 1.65625 -4.5 L 3.203125 -11.859375 L 1.109375 -11.859375 L 1.28125 -12.765625 L 3.53125 -13.71875 L 5.0625 -16.5 L 6.265625 -16.5 L 5.59375 -13.421875 L 8.953125 -13.421875 L 8.640625 -11.859375 L 5.296875 -11.859375 L 3.703125 -4.46875 C 3.554688 -3.757812 3.484375 -3.222656 3.484375 -2.859375 C 3.484375 -2.398438 3.601562 -2.046875 3.84375 -1.796875 C 4.082031 -1.554688 4.414062 -1.4375 4.84375 -1.4375 Z M 4.84375 -1.4375 "/></g></g><g style="fill:#373434;fill-opacity:1;"><g transform="translate(504.289438, 835.167565)"><path style="stroke:none" d="M 8.921875 0 L 10.734375 -8.46875 C 10.878906 -9.238281 10.953125 -9.789062 10.953125 -10.125 C 10.953125 -11.332031 10.351562 -11.9375 9.15625 -11.9375 C 8.425781 -11.9375 7.71875 -11.695312 7.03125 -11.21875 C 6.34375 -10.738281 5.734375 -10.035156 5.203125 -9.109375 C 4.679688 -8.191406 4.285156 -7.085938 4.015625 -5.796875 L 2.78125 0 L 0.71875 0 L 4.765625 -19.046875 L 6.828125 -19.046875 C 6.671875 -18.378906 6.523438 -17.726562 6.390625 -17.09375 C 6.265625 -16.46875 6.128906 -15.832031 5.984375 -15.1875 C 5.835938 -14.539062 5.679688 -13.863281 5.515625 -13.15625 C 5.347656 -12.445312 5.15625 -11.675781 4.9375 -10.84375 L 5.0625 -10.84375 C 5.832031 -11.84375 6.59375 -12.554688 7.34375 -12.984375 C 8.09375 -13.421875 8.875 -13.640625 9.6875 -13.640625 C 10.757812 -13.640625 11.585938 -13.34375 12.171875 -12.75 C 12.753906 -12.164062 13.046875 -11.335938 13.046875 -10.265625 C 13.046875 -9.753906 12.953125 -9.078125 12.765625 -8.234375 C 12.441406 -6.648438 11.847656 -3.90625 10.984375 0 Z M 8.921875 0 "/></g></g><g style="fill:#373434;fill-opacity:1;"><g transform="translate(525.038651, 835.167565)"><path style="stroke:none" d=""/></g></g><g style="fill:#373434;fill-opacity:1;"><g transform="translate(537.826241, 835.167565)"><path style="stroke:none" d="M 6.03125 0.25 C 4.519531 0.25 3.335938 -0.191406 2.484375 -1.078125 C 1.628906 -1.972656 1.203125 -3.207031 1.203125 -4.78125 C 1.203125 -6.320312 1.503906 -7.796875 2.109375 -9.203125 C 2.722656 -10.609375 3.53125 -11.703125 4.53125 -12.484375 C 5.53125 -13.273438 6.632812 -13.671875 7.84375 -13.671875 C 9.09375 -13.671875 10.03125 -13.394531 10.65625 -12.84375 C 11.289062 -12.300781 11.609375 -11.546875 11.609375 -10.578125 C 11.609375 -9.109375 10.929688 -7.953125 9.578125 -7.109375 C 8.222656 -6.273438 6.285156 -5.859375 3.765625 -5.859375 L 3.359375 -5.859375 L 3.3125 -4.890625 C 3.3125 -3.816406 3.5625 -2.976562 4.0625 -2.375 C 4.5625 -1.78125 5.335938 -1.484375 6.390625 -1.484375 C 6.898438 -1.484375 7.425781 -1.554688 7.96875 -1.703125 C 8.519531 -1.847656 9.195312 -2.117188 10 -2.515625 L 10 -0.71875 C 9.238281 -0.363281 8.5625 -0.113281 7.96875 0.03125 C 7.382812 0.175781 6.738281 0.25 6.03125 0.25 Z M 7.734375 -11.921875 C 6.890625 -11.921875 6.097656 -11.535156 5.359375 -10.765625 C 4.617188 -9.992188 4.050781 -8.925781 3.65625 -7.5625 L 3.8125 -7.5625 C 5.664062 -7.5625 7.085938 -7.804688 8.078125 -8.296875 C 9.078125 -8.785156 9.578125 -9.488281 9.578125 -10.40625 C 9.578125 -10.84375 9.425781 -11.203125 9.125 -11.484375 C 8.832031 -11.773438 8.367188 -11.921875 7.734375 -11.921875 Z M 7.734375 -11.921875 "/></g></g><g style="fill:#373434;fill-opacity:1;"><g transform="translate(556.468686, 835.167565)"><path style="stroke:none" d="M 2.734375 0 L 1.203125 -13.421875 L 3.25 -13.421875 L 4.046875 -5.921875 C 4.234375 -3.804688 4.328125 -2.328125 4.328125 -1.484375 L 4.40625 -1.484375 C 5.445312 -3.722656 6.175781 -5.238281 6.59375 -6.03125 L 10.578125 -13.421875 L 12.765625 -13.421875 L 5.515625 0 Z M 2.734375 0 "/></g></g><g style="fill:#373434;fill-opacity:1;"><g transform="translate(574.327218, 835.167565)"><path style="stroke:none" d="M 6.03125 0.25 C 4.519531 0.25 3.335938 -0.191406 2.484375 -1.078125 C 1.628906 -1.972656 1.203125 -3.207031 1.203125 -4.78125 C 1.203125 -6.320312 1.503906 -7.796875 2.109375 -9.203125 C 2.722656 -10.609375 3.53125 -11.703125 4.53125 -12.484375 C 5.53125 -13.273438 6.632812 -13.671875 7.84375 -13.671875 C 9.09375 -13.671875 10.03125 -13.394531 10.65625 -12.84375 C 11.289062 -12.300781 11.609375 -11.546875 11.609375 -10.578125 C 11.609375 -9.109375 10.929688 -7.953125 9.578125 -7.109375 C 8.222656 -6.273438 6.285156 -5.859375 3.765625 -5.859375 L 3.359375 -5.859375 L 3.3125 -4.890625 C 3.3125 -3.816406 3.5625 -2.976562 4.0625 -2.375 C 4.5625 -1.78125 5.335938 -1.484375 6.390625 -1.484375 C 6.898438 -1.484375 7.425781 -1.554688 7.96875 -1.703125 C 8.519531 -1.847656 9.195312 -2.117188 10 -2.515625 L 10 -0.71875 C 9.238281 -0.363281 8.5625 -0.113281 7.96875 0.03125 C 7.382812 0.175781 6.738281 0.25 6.03125 0.25 Z M 7.734375 -11.921875 C 6.890625 -11.921875 6.097656 -11.535156 5.359375 -10.765625 C 4.617188 -9.992188 4.050781 -8.925781 3.65625 -7.5625 L 3.8125 -7.5625 C 5.664062 -7.5625 7.085938 -7.804688 8.078125 -8.296875 C 9.078125 -8.785156 9.578125 -9.488281 9.578125 -10.40625 C 9.578125 -10.84375 9.425781 -11.203125 9.125 -11.484375 C 8.832031 -11.773438 8.367188 -11.921875 7.734375 -11.921875 Z M 7.734375 -11.921875 "/></g></g><g style="fill:#373434;fill-opacity:1;"><g transform="translate(592.969663, 835.167565)"><path style="stroke:none" d="M 9.203125 -13.671875 C 9.765625 -13.671875 10.253906 -13.613281 10.671875 -13.5 L 10.234375 -11.65625 C 9.804688 -11.757812 9.378906 -11.8125 8.953125 -11.8125 C 8.210938 -11.8125 7.515625 -11.566406 6.859375 -11.078125 C 6.210938 -10.585938 5.644531 -9.90625 5.15625 -9.03125 C 4.675781 -8.164062 4.320312 -7.203125 4.09375 -6.140625 L 2.78125 0 L 0.71875 0 L 3.59375 -13.421875 L 5.296875 -13.421875 L 5.015625 -10.9375 L 5.140625 -10.9375 C 5.734375 -11.707031 6.21875 -12.257812 6.59375 -12.59375 C 6.976562 -12.9375 7.378906 -13.203125 7.796875 -13.390625 C 8.222656 -13.578125 8.691406 -13.671875 9.203125 -13.671875 Z M 9.203125 -13.671875 "/></g></g><g style="fill:#373434;fill-opacity:1;"><g transform="translate(609.174626, 835.167565)"><path style="stroke:none" d="M 1.203125 -13.421875 L 3.25 -13.421875 L 4.15625 -6.75 C 4.238281 -6.1875 4.316406 -5.351562 4.390625 -4.25 C 4.472656 -3.15625 4.515625 -2.273438 4.515625 -1.609375 L 4.59375 -1.609375 C 4.875 -2.316406 5.226562 -3.128906 5.65625 -4.046875 C 6.082031 -4.972656 6.394531 -5.613281 6.59375 -5.96875 L 10.578125 -13.421875 L 12.765625 -13.421875 L 4.234375 2.28125 C 3.472656 3.6875 2.722656 4.660156 1.984375 5.203125 C 1.242188 5.753906 0.347656 6.03125 -0.703125 6.03125 C -1.285156 6.03125 -1.851562 5.941406 -2.40625 5.765625 L -2.40625 4.109375 C -1.894531 4.253906 -1.363281 4.328125 -0.8125 4.328125 C -0.132812 4.328125 0.4375 4.117188 0.90625 3.703125 C 1.382812 3.296875 1.847656 2.691406 2.296875 1.890625 L 3.234375 0.21875 Z M 1.203125 -13.421875 "/></g></g><g style="fill:#373434;fill-opacity:1;"><g transform="translate(627.033158, 835.167565)"><path style="stroke:none" d="M 7.875 -13.59375 C 9.425781 -13.59375 10.648438 -13.132812 11.546875 -12.21875 C 12.441406 -11.300781 12.890625 -10.035156 12.890625 -8.421875 C 12.890625 -6.890625 12.59375 -5.441406 12 -4.078125 C 11.414062 -2.710938 10.625 -1.65625 9.625 -0.90625 C 8.625 -0.164062 7.488281 0.203125 6.21875 0.203125 C 4.65625 0.203125 3.425781 -0.257812 2.53125 -1.1875 C 1.644531 -2.113281 1.203125 -3.375 1.203125 -4.96875 C 1.203125 -6.519531 1.5 -7.976562 2.09375 -9.34375 C 2.6875 -10.71875 3.488281 -11.769531 4.5 -12.5 C 5.519531 -13.226562 6.644531 -13.59375 7.875 -13.59375 Z M 10.765625 -8.703125 C 10.765625 -9.640625 10.507812 -10.398438 10 -10.984375 C 9.488281 -11.566406 8.796875 -11.859375 7.921875 -11.859375 C 7.035156 -11.859375 6.238281 -11.554688 5.53125 -10.953125 C 4.820312 -10.347656 4.273438 -9.507812 3.890625 -8.4375 C 3.503906 -7.363281 3.3125 -6.171875 3.3125 -4.859375 C 3.3125 -3.785156 3.566406 -2.957031 4.078125 -2.375 C 4.597656 -1.789062 5.34375 -1.5 6.3125 -1.5 C 7.164062 -1.5 7.929688 -1.796875 8.609375 -2.390625 C 9.285156 -2.992188 9.8125 -3.84375 10.1875 -4.9375 C 10.570312 -6.039062 10.765625 -7.296875 10.765625 -8.703125 Z M 10.765625 -8.703125 "/></g></g><g style="fill:#373434;fill-opacity:1;"><g transform="translate(647.378165, 835.167565)"><path style="stroke:none" d="M 8.921875 0 L 10.734375 -8.46875 C 10.898438 -9.320312 10.984375 -9.910156 10.984375 -10.234375 C 10.984375 -10.753906 10.835938 -11.164062 10.546875 -11.46875 C 10.253906 -11.78125 9.789062 -11.9375 9.15625 -11.9375 C 8.425781 -11.9375 7.71875 -11.691406 7.03125 -11.203125 C 6.34375 -10.710938 5.734375 -10.015625 5.203125 -9.109375 C 4.679688 -8.203125 4.285156 -7.101562 4.015625 -5.8125 L 2.78125 0 L 0.71875 0 L 3.59375 -13.421875 L 5.296875 -13.421875 L 5.015625 -10.9375 L 5.140625 -10.9375 C 5.921875 -11.925781 6.675781 -12.628906 7.40625 -13.046875 C 8.144531 -13.460938 8.90625 -13.671875 9.6875 -13.671875 C 10.71875 -13.671875 11.535156 -13.382812 12.140625 -12.8125 C 12.742188 -12.25 13.046875 -11.457031 13.046875 -10.4375 C 13.046875 -9.789062 12.953125 -9.054688 12.765625 -8.234375 L 11.015625 0 Z M 8.921875 0 "/></g></g><g style="fill:#373434;fill-opacity:1;"><g transform="translate(668.127378, 835.167565)"><path style="stroke:none" d="M 6.03125 0.25 C 4.519531 0.25 3.335938 -0.191406 2.484375 -1.078125 C 1.628906 -1.972656 1.203125 -3.207031 1.203125 -4.78125 C 1.203125 -6.320312 1.503906 -7.796875 2.109375 -9.203125 C 2.722656 -10.609375 3.53125 -11.703125 4.53125 -12.484375 C 5.53125 -13.273438 6.632812 -13.671875 7.84375 -13.671875 C 9.09375 -13.671875 10.03125 -13.394531 10.65625 -12.84375 C 11.289062 -12.300781 11.609375 -11.546875 11.609375 -10.578125 C 11.609375 -9.109375 10.929688 -7.953125 9.578125 -7.109375 C 8.222656 -6.273438 6.285156 -5.859375 3.765625 -5.859375 L 3.359375 -5.859375 L 3.3125 -4.890625 C 3.3125 -3.816406 3.5625 -2.976562 4.0625 -2.375 C 4.5625 -1.78125 5.335938 -1.484375 6.390625 -1.484375 C 6.898438 -1.484375 7.425781 -1.554688 7.96875 -1.703125 C 8.519531 -1.847656 9.195312 -2.117188 10 -2.515625 L 10 -0.71875 C 9.238281 -0.363281 8.5625 -0.113281 7.96875 0.03125 C 7.382812 0.175781 6.738281 0.25 6.03125 0.25 Z M 7.734375 -11.921875 C 6.890625 -11.921875 6.097656 -11.535156 5.359375 -10.765625 C 4.617188 -9.992188 4.050781 -8.925781 3.65625 -7.5625 L 3.8125 -7.5625 C 5.664062 -7.5625 7.085938 -7.804688 8.078125 -8.296875 C 9.078125 -8.785156 9.578125 -9.488281 9.578125 -10.40625 C 9.578125 -10.84375 9.425781 -11.203125 9.125 -11.484375 C 8.832031 -11.773438 8.367188 -11.921875 7.734375 -11.921875 Z M 7.734375 -11.921875 "/></g></g></g></svg>